<svg id="Layer_1" data-name="Layer 1" xmlns="http://www.w3.org/2000/svg" viewBox="0 0 1832 1394"><defs><style>.cls-1{font-size:94.14px;font-family:Montserrat-Medium, Montserrat;}.cls-1,.cls-2{fill:#e8213d;}</style></defs><title>UstaOl logo 4.1</title><text class="cls-1" transform="translate(254.12 460.92) rotate(-38.77)">Y</text><text class="cls-1" transform="translate(329.91 403.48) rotate(-30.44)">E</text><text class="cls-1" transform="translate(415.84 355.04) rotate(-22.67)">M</text><text class="cls-1" transform="translate(532.97 309.33) rotate(-16.15)">E</text><text class="cls-1" transform="matrix(0.98, -0.19, 0.19, 0.98, 628.76, 283.26)">K</text><text class="cls-1" transform="matrix(0.99, -0.12, 0.12, 0.99, 731.43, 265.46)"> </text><text class="cls-1" transform="translate(792.97 258.43) rotate(-3.23)">P</text><text class="cls-1" transform="translate(896.51 254.35) rotate(0.56)">I</text><text class="cls-1" transform="translate(962.39 255.57) rotate(4.01)">Ş</text><text class="cls-1" transform="matrix(0.99, 0.13, -0.13, 0.99, 1057.11, 263.83)">I</text><text class="cls-1" transform="translate(1122.15 273.18) rotate(11.78)">R</text><text class="cls-1" transform="translate(1224.16 295.7) rotate(17.83)">M</text><text class="cls-1" transform="translate(1342.9 336.75) rotate(24.62)">E</text><text class="cls-1" transform="matrix(0.85, 0.53, -0.53, 0.85, 1431.86, 379.38)">N</text><text class="cls-1" transform="translate(1524.2 442.41) rotate(40.34)">I</text><text class="cls-1" transform="matrix(0.64, 0.77, -0.77, 0.64, 1572.68, 484.47)">N</text><text class="cls-1" transform="translate(400.87 1085.04) rotate(24.88) scale(0.99 1)">E</text><text class="cls-1" transform="translate(478.38 1120.01) rotate(19.22) scale(0.99 1)">N</text><text class="cls-1" transform="matrix(0.95, 0.26, -0.26, 0.96, 570.53, 1150.37)"> </text><text class="cls-1" transform="translate(615.01 1162.47) rotate(11.78) scale(0.99 1)">K</text><text class="cls-1" transform="translate(699.73 1179.55) rotate(7.33) scale(0.99 1)">O</text><text class="cls-1" transform="matrix(0.99, 0.06, -0.06, 1, 798.75, 1191.1)">L</text><text class="cls-1" transform="matrix(0.99, -0.01, 0.01, 1, 875.51, 1195.11)">A</text><text class="cls-1" transform="translate(960.58 1193.78) rotate(-4.01) scale(0.99 1)">Y</text><text class="cls-1" transform="matrix(0.98, -0.12, 0.12, 0.99, 1041.22, 1187.16)"> </text><text class="cls-1" transform="translate(1086.69 1181.58) rotate(-9.93) scale(0.99 1)">Y</text><text class="cls-1" transform="translate(1164.67 1167.57) rotate(-14.37) scale(0.99 1)">O</text><text class="cls-1" transform="translate(1261.45 1141.36) rotate(-19.25) scale(0.99 1)">L</text><text class="cls-1" transform="translate(1333.58 1115.66) rotate(-24.53) scale(0.99 1)">U</text><path class="cls-2" d="M177.41,835q-31.35-31.54-31.35-90.36V591.82h50.31V742.75q0,79.73,68.88,79.72,68.5,0,68.5-79.72V591.82H383.3V744.68q0,58.83-31.15,90.36t-87.27,31.54Q208.76,866.59,177.41,835Z"/><path class="cls-2" d="M477.14,857.69q-29.22-8.9-46.25-23.61L448.31,795q16.63,13.16,40.83,21.48a148.34,148.34,0,0,0,48.57,8.32q30.19,0,45.09-9.67t14.9-25.54a24.74,24.74,0,0,0-8.32-19.16,58.5,58.5,0,0,0-21.09-11.8q-12.77-4.26-34.83-9.68-31-7.35-50.12-14.71a82.39,82.39,0,0,1-32.89-23q-13.74-15.67-13.74-42.38A72.3,72.3,0,0,1,448.89,628q12.19-18.38,36.77-29.22t60.18-10.84a194.6,194.6,0,0,1,48.76,6.19q24,6.19,41.41,17.8L620.14,651A156.75,156.75,0,0,0,583,635.16a139.08,139.08,0,0,0-37.54-5.42q-29.81,0-44.31,10.06t-14.51,26.7a24.12,24.12,0,0,0,8.32,19A60,60,0,0,0,516,697.08q12.77,4.26,34.83,9.67,30.18,7,49.54,14.51a84.9,84.9,0,0,1,33.09,23q13.73,15.48,13.74,41.8A71.36,71.36,0,0,1,635,826.73q-12.19,18.19-37,29t-60.37,10.84A206.72,206.72,0,0,1,477.14,857.69Z"/><path class="cls-2" d="M748.23,634.39H658.45V591.82H888.33v42.57H798.54V862.72H748.23Z"/><path class="cls-2" d="M1088.41,800H953l-26.7,62.69H874.4l121.9-270.9h49.54l122.29,270.9H1115.5Zm-16.64-39.47-51.08-118.42L970,760.55Z"/><path class="cls-2" d="M1524.55,591.82h50.31V820.15h141.64v42.57h-192Z"/><path class="cls-2" d="M1351.19,717.26a8.4,8.4,0,1,0-16.81.19l.37,33.62a8.41,8.41,0,0,0,16.81-.19Z"/><path class="cls-2" d="M1309.07,709.32a8.4,8.4,0,0,0-8.31,8.5l.37,33.62a8.4,8.4,0,0,0,8.5,8.31h0a8.4,8.4,0,0,0,8.31-8.5l-.37-33.62A8.41,8.41,0,0,0,1309.07,709.32Z"/><path class="cls-2" d="M1452.19,655.67a133.76,133.76,0,0,0-52.25-49.73q-33.29-18-74.69-18t-74.69,18a133.21,133.21,0,0,0-52.25,49.92q-19,31.93-19,71.4t19,71.4a133.2,133.2,0,0,0,52.25,49.92A150.24,150.24,0,0,0,1310.41,866V819.64l30.26-.19.3,46.45a150.07,150.07,0,0,0,59-17.32,133.71,133.71,0,0,0,52.25-49.73q19-31.73,19-71.59T1452.19,655.67ZM1394,694l-7.07,84.13a25.11,25.11,0,0,1-24.85,23.1l-70.29.78a25.11,25.11,0,0,1-25.35-22.54l-8.94-84a25.23,25.23,0,0,1,24.79-27.88l86.29-1A25.23,25.23,0,0,1,1394,694Z"/></svg>