<svg width="873" height="116" viewBox="0 0 873 116" xmlns="http://www.w3.org/2000/svg"><title>semicolon</title>
  <g fill-rule="nonzero" fill="#ffffff">
    <path
      d="M20.4 78.2c.9.7 2 1.6 3.3 2.8 1.3 1.2 2.9 2.3 4.6 3.5 2.6 1.7 5.1 3 7.6 4s5.2 1.4 7.9 1.4c2.6 0 4.7-.3 6.4-.9 1.7-.6 3.1-1.3 4.1-2.3 1-1 1.7-2.1 2.2-3.3.4-1.3.6-2.6.6-4 0-1.6-.6-3-1.8-4.2-1.1-1.1-2.6-2.2-4.3-3.2-1.7-1-3.5-1.8-5.3-2.5-1.9-.7-3.5-1.2-4.8-1.7-6-2.1-11.3-4.4-15.8-6.8-4.5-2.4-8.3-5.1-11.3-8.1S8.5 46.6 7 43c-1.5-3.6-2.3-7.6-2.3-12 0-4.7.9-8.9 2.8-12.7 1.9-3.8 4.6-7.1 8.1-9.8 3.5-2.7 7.7-4.8 12.6-6.3C33.1.7 38.6 0 44.7 0c4.6 0 9 .5 13.1 1.5 4.2 1 8.3 2.7 12.4 4.9 1.7 1 3.3 2.1 4.9 3.1 1.5 1.1 2.9 2.1 4 3.1 1.2 1 2.1 2 2.8 2.9.7.9 1 1.7 1 2.3 0 .6-.2 1.3-.5 1.8-.3.6-.8 1.2-1.5 1.9L69.4 33.9c-.9.9-1.7 1.3-2.6 1.3-.7 0-1.4-.2-1.9-.6-.6-.4-1.2-.9-1.9-1.5l-.7-.6c-1-.9-2.1-1.7-3.4-2.6-1.2-.9-2.6-1.7-3.9-2.5-1.4-.7-2.9-1.3-4.4-1.8-1.6-.5-3.2-.7-4.8-.7-1.7 0-3.2.1-4.7.4-1.5.3-2.7.7-3.8 1.3-1.1.6-2 1.4-2.6 2.4-.7 1-1 2.2-1 3.6s.4 2.6 1.1 3.7c.7 1 1.8 2 3.2 2.9 1.4.9 3.2 1.7 5.2 2.5s4.5 1.6 7.3 2.5c5.3 1.8 10.2 3.6 14.7 5.5s8.4 4.2 11.6 6.9c3.3 2.6 5.8 5.8 7.7 9.5 1.8 3.7 2.8 8.1 2.8 13.3 0 5.5-1.1 10.5-3.4 15s-5.4 8.3-9.3 11.5c-3.9 3.2-8.6 5.6-13.9 7.4-5.3 1.7-11.1 2.6-17.2 2.6-5.8 0-11.5-1-17-3.1-5.6-2.1-10.8-4.8-15.6-8.3-2-1.5-3.7-2.9-5.1-4.3-1.4-1.4-2.5-2.5-3.3-3.4l-.2-.2c0-.1-.1-.2-.1-.2-.1 0-.1-.1-.2-.1 0-.1-.1-.2-.1-.2-.1 0-.1-.1-.2-.1C.5 94.7 0 93.7 0 93c0-.9.6-1.8 1.7-2.9l13-12.4c1.1-.8 1.9-1.1 2.6-1.1.5 0 .9.1 1.4.4.4.1 1 .6 1.7 1.2zM98.8 5.4c0-1.1.3-1.9.9-2.5.6-.6 1.4-.9 2.4-.9h75.7c1.1 0 2 .3 2.6 1 .6.6.9 1.5.9 2.6l-2.1 18.6c0 .9-.3 1.7-.9 2.5-.6.8-1.5 1.2-2.6 1.2h-47.6v18.7h45.2c1 0 1.7.2 2.4.7.6.5.9 1.2.9 2.3l-1.9 16.3c0 .7-.3 1.4-.8 2-.6.7-1.4 1-2.4 1H128V88h40.9c2.3 0 3.4 1.2 3.4 3.5l-1.7 18.9c0 .5-.2 1-.6 1.4-.2 1.4-1.2 2.1-3.1 2.1h-64.7c-1 0-1.8-.3-2.4-.8-.6-.5-.9-1.4-.9-2.5V5.4h-.1zM193.5 5.2c.1-.9.5-1.7 1.1-2.3.6-.7 1.5-1 2.6-1h26.1c1.9 0 3.1 1 3.6 2.9l20.5 68.5L268 4.8c.7-1.9 2-2.9 3.8-2.9h25.8c.9 0 1.7.3 2.5.9.7.6 1.1 1.4 1.2 2.4 1.8 17.7 3.6 35.2 5.4 52.7 1.8 17.4 3.6 35 5.4 52.7v.4c0 2-1.1 2.9-3.3 2.9h-21.3c-2.3 0-3.5-1.1-3.6-3.3l-6.6-58.3-17 58.7c-.1.5-.5 1.1-1.1 1.8-.6.7-1.2 1.1-1.8 1.1h-19.8c-.6 0-1.2-.3-1.9-1s-1-1.3-1.1-1.8l-17-58.5-6.6 58.1c-.1 2.2-1.3 3.3-3.7 3.3H186c-2.2 0-3.3-1.1-3.3-3.3L193.5 5.2zM462.9 10.1c.9.5 1.5 1.2 1.9 2 .4.8.3 1.8-.2 2.9l-12.7 18c-.6.9-1.1 1.3-1.8 1.5-.6.1-1.4-.1-2.3-.6-2.5-1.9-5.2-3.3-8.1-4.3-3-1-6.1-1.5-9.4-1.5-4.1 0-7.9.8-11.4 2.3-3.5 1.6-6.5 3.7-9 6.4s-4.5 5.9-5.9 9.5c-1.4 3.6-2.1 7.5-2.1 11.6s.7 8 2.1 11.6c1.4 3.6 3.4 6.7 5.9 9.4 2.5 2.7 5.5 4.8 9 6.4 3.5 1.6 7.3 2.3 11.4 2.3 3.3 0 6.5-.5 9.5-1.5s5.8-2.5 8.2-4.3c.9-.6 1.7-.8 2.3-.7.6.1 1.2.6 1.8 1.4l12.9 18.6c.6 1.1.6 2 .2 2.8-.4.8-1 1.4-1.9 1.9-4.7 3.2-9.8 5.6-15.3 7.4-5.4 1.7-11.2 2.6-17.2 2.6-5.3 0-10.4-.7-15.3-2-4.9-1.4-9.5-3.3-13.8-5.8-4.3-2.5-8.2-5.5-11.6-9-3.5-3.5-6.5-7.4-9-11.6-2.5-4.2-4.4-8.8-5.8-13.7-1.4-4.9-2-10-2-15.3 0-5.3.7-10.4 2-15.3 1.4-4.9 3.3-9.5 5.8-13.8 2.5-4.3 5.5-8.2 9-11.7s7.4-6.5 11.6-9c4.2-2.5 8.9-4.4 13.8-5.8 4.9-1.4 10-2.1 15.3-2.1 6 0 11.7.8 17.1 2.5 5.3 1.3 10.3 3.7 15 6.9z"/>
    <path
      d="M461.6 58c0-5.3.7-10.4 2-15.3 1.4-4.9 3.3-9.5 5.8-13.8 2.5-4.3 5.5-8.2 9-11.7s7.4-6.5 11.7-9c4.3-2.5 8.9-4.4 13.8-5.8 4.9-1.4 10-2.1 15.4-2.1 5.3 0 10.4.7 15.3 2.1 4.9 1.4 9.5 3.3 13.8 5.8 4.3 2.5 8.2 5.5 11.7 9s6.5 7.4 9 11.7c2.5 4.3 4.4 8.9 5.8 13.8 1.4 4.9 2.1 10 2.1 15.3 0 5.3-.7 10.4-2.1 15.3-1.4 4.9-3.3 9.5-5.8 13.7-2.5 4.2-5.5 8.1-9 11.6s-7.4 6.5-11.7 9c-4.3 2.5-8.9 4.4-13.8 5.8-4.9 1.4-10 2-15.3 2-5.3 0-10.5-.7-15.4-2-4.9-1.4-9.5-3.3-13.8-5.8-4.3-2.5-8.2-5.5-11.7-9s-6.5-7.4-9-11.6c-2.5-4.2-4.4-8.8-5.8-13.7-1.3-4.8-2-10-2-15.3zm29.2-.1c0 4.2.7 8.1 2.1 11.7 1.4 3.6 3.4 6.8 5.9 9.5 2.5 2.7 5.5 4.8 9 6.3s7.3 2.3 11.4 2.3c4.2 0 8-.8 11.5-2.3 3.5-1.5 6.5-3.6 9-6.3 2.5-2.7 4.5-5.8 5.9-9.5 1.4-3.6 2.1-7.5 2.1-11.7 0-4.1-.7-8-2.1-11.6-1.4-3.6-3.4-6.8-5.9-9.5-2.5-2.7-5.5-4.8-9-6.4-3.5-1.6-7.3-2.3-11.5-2.3s-8 .8-11.4 2.3c-3.5 1.6-6.5 3.7-9 6.4s-4.5 5.9-5.9 9.5c-1.4 3.6-2.1 7.5-2.1 11.6zM588.6 5.2c0-.9.3-1.7.9-2.3.6-.6 1.4-1 2.5-1h22.3c.9 0 1.6.3 2.3.9.7.6 1.1 1.4 1.1 2.4v82h22.1c.9 0 1.7.3 2.3.9.7.6 13.9 22.3 13.9 22.3 0 .9-.3 1.6-.9 2.3-.6.7-1.4 1.1-2.5 1.1h-60.9c-2.2 0-3.3-1.1-3.3-3.3V5.2h.2zM647.5 58c0-5.3.7-10.4 2-15.3 1.4-4.9 3.3-9.5 5.8-13.8 2.5-4.3 5.5-8.2 9-11.7s7.4-6.5 11.7-9c4.3-2.5 8.9-4.4 13.8-5.8 4.9-1.4 10-2.1 15.4-2.1 5.3 0 10.4.7 15.3 2.1 4.9 1.4 9.5 3.3 13.8 5.8 4.3 2.5 8.2 5.5 11.7 9s6.5 7.4 9 11.7c2.5 4.3 4.4 8.9 5.8 13.8 1.4 4.9 2.1 10 2.1 15.3 0 5.3-.7 10.4-2.1 15.3-1.4 4.9-3.3 9.5-5.8 13.7-2.5 4.2-5.5 8.1-9 11.6s-7.4 6.5-11.7 9c-4.3 2.5-8.9 4.4-13.8 5.8-4.9 1.4-10 2-15.3 2-5.3 0-10.5-.7-15.4-2-4.9-1.4-9.5-3.3-13.8-5.8-4.3-2.5-8.2-5.5-11.7-9s-6.5-7.4-9-11.6c-2.5-4.2-4.4-8.8-5.8-13.7-1.3-4.8-2-10-2-15.3zm29.2-.1c0 4.2.7 8.1 2.1 11.7 1.4 3.6 3.4 6.8 5.9 9.5 2.5 2.7 5.5 4.8 9 6.3s7.3 2.3 11.4 2.3c4.2 0 8-.8 11.5-2.3 3.5-1.5 6.5-3.6 9-6.3 2.5-2.7 4.5-5.8 5.9-9.5 1.4-3.6 2.1-7.5 2.1-11.7 0-4.1-.7-8-2.1-11.6-1.4-3.6-3.4-6.8-5.9-9.5-2.5-2.7-5.5-4.8-9-6.4-3.5-1.6-7.3-2.3-11.5-2.3s-8 .8-11.4 2.3c-3.5 1.6-6.5 3.7-9 6.4s-4.5 5.9-5.9 9.5c-1.4 3.6-2.1 7.5-2.1 11.6zM774.2 5.2c0-.9.3-1.7.8-2.3.6-.7 1.4-1 2.5-1h24.7c.7 0 1.4.2 2.2.5.8.4 1.4 1 2 1.8 6.4 10.3 12.7 20.5 19 30.5 6.3 10 12.6 20.2 19.1 30.5V4.8c.2-.9.6-1.6 1.2-2.1s1.3-.8 2.1-.8h21.5c1.1 0 1.9.3 2.6.9.7.6 1.1 1.4 1.1 2.5V111c0 1-.3 1.7-.9 2.2-.6.5-1.4.7-2.5.7h-24.1c-.7 0-1.2-.2-1.7-.7-.5-.5-1-1.1-1.6-1.8-6.7-11.1-13.3-22-19.8-32.8-6.5-10.8-13.2-21.7-19.9-32.8v64.8c0 1.1-.3 1.9-.8 2.5-.5.6-1.4.8-2.7.8h-21.4c-1.2 0-2-.3-2.5-.9-.5-.6-.8-1.4-.8-2.3V5.2h-.1zM329 60.3v45.5c0 5.6 4.5 10.1 10.1 10.1 5 0 9.3-3.7 10-8.7l6.5-45.5c.8-6.1-3.9-11.4-10-11.4h-6.5c-5.6-.1-10.1 4.4-10.1 10zM357.5 34.6h-29c-.8 0-1.5-.7-1.5-1.5V3.5c0-.8.7-1.5 1.5-1.5h29c.8 0 1.5.7 1.5 1.5v29.6c.1.8-.6 1.5-1.5 1.5z"/>
  </g>
</svg>
