<?xml version="1.0" encoding="utf-8"?>
<!-- Generator: Adobe Illustrator 24.0.2, SVG Export Plug-In . SVG Version: 6.00 Build 0)  -->
<svg version="1.1" class="Layer_1"
    xmlns="http://www.w3.org/2000/svg"
    xmlns:xlink="http://www.w3.org/1999/xlink" x="0px" y="0px" viewBox="0 0 1000 1000" enable-background="new 0 0 1000 1000" xml:space="preserve">
    <style>
    .tire-1{
        transform-origin: 322px 760px;
    }

    .tire-2{
        transform-origin: 728px 760px;
    }

    .tire-1,
    .tire-2{
        animation: tires .7s infinite linear;
    }

    @keyframes tires{
        to{transform: rotate(360deg);}
    }

    .truck-group,
    .box-group,
    .box,
    .hands,
    .clouds,
    .sky-line-1,
    .sky-line-2,
    .sky-line-3{
        animation-duration: 5s;
        animation-iteration-count: infinite;
    }

    .hands{
		opacity: 0;
        animation-name: hands;
    }

    @keyframes hands{
        0%{opacity: 0;}
        10%, 100%{opacity: 1;}
    }

    .box{
		transform: translateY(-800px);
        animation-name: box;
        animation-timing-function: cubic-bezier(.8,.01,.29,1.08);
    }

    @keyframes box{
        0%, 10%{transform: translateY(-800px);}
        20%, 100%{transform: initial;}
    }

    .box-group{
        animation-name: box-group;
        animation-timing-function: cubic-bezier(.8,.01,.29,1.08);
    }

    @keyframes box-group{
        0%, 30%{transform: initial;}
        50%, 100%{transform: translateX(-1100px);}
    }

	.truck-group{
		transform: translateX(1100px);
        animation-name: truck-group;
	}

    @keyframes truck-group{
        0%, 40%{transform: translateX(1100px);}
        50%, 90%{transform: initial;}
        100%{transform: translateX(-1100px)}
    }

    .clouds{
        transform: translateX(200px);
        animation-name: clouds;
        animation-timing-function: ease-out;
    }

    @keyframes clouds{
        0%, 40%{transform: translateX(200px);}
        100%{transform: initial;}
    }

    .sky-line-1{
        animation-name: sky-line-1;
        stroke-dasharray: 1121 1130;
        transform: translateX(1100px);        
    }

    @keyframes sky-line-1{
        0%, 45%{stroke-dashoffset: 0; transform: translateX(1300px);}
        50%{transform: initial; stroke-dashoffset: 0;}
        55%, 100%{stroke-dashoffset: 1121;}
    }

    .sky-line-2{
        animation-name: sky-line-2;
        stroke-dasharray: 1121 1130;
        transform: translateX(1100px);        
    }

    @keyframes sky-line-2{
        0%, 50%{stroke-dashoffset: 0; transform: translateX(1300px);}
        55%{transform: translateX(400px); stroke-dashoffset: 0;}
        60%, 100%{stroke-dashoffset: 1121;}
    }

    .sky-line-3{
        animation-name: sky-line-3;
        stroke-dasharray: 1121 1130;
        transform: translateX(1100px);        
    }

    @keyframes sky-line-3{
        0%, 45%{stroke-dashoffset: 0; transform: translateX(1300px);}
        50%{transform: initial; stroke-dashoffset: 0;}
        55%, 100%{stroke-dashoffset: 1121;}
    }
	
	</style>
	<g class="box-group">
        <g class="hands-back hands">
            <g class="hands-2-back">
                <path fill="#FCE3E9" d="M769.1,662.7v69.1H610.2c1.4-38.3,33-69.1,71.6-69.1H769.1 M771.6,630.1h-89.7    c-57.6,0-104.3,46.7-104.3,104.3v0c0,16.6,13.4,30,30,30h164c16.6,0,30-13.4,30-30v-74.3C801.7,643.5,788.2,630.1,771.6,630.1    L771.6,630.1z" />
                <path fill="#E54C66" d="M771.6,647.9c6.8,0,12.3,5.5,12.3,12.3v74.3c0,6.8-5.5,12.3-12.3,12.3h-164c-6.8,0-12.3-5.5-12.3-12.3    c0-47.7,38.8-86.5,86.5-86.5H771.6 M771.6,630.1h-89.7c-57.6,0-104.3,46.7-104.3,104.3v0c0,16.6,13.4,30,30,30h164    c16.6,0,30-13.4,30-30v-74.3C801.7,643.5,788.2,630.1,771.6,630.1L771.6,630.1z" />
            </g>
            <g class="hand-1-back">
                <path fill="#FCE3E9" d="M230.9,662.7v69.1h158.8c-1.4-38.3-33-69.1-71.6-69.1H230.9 M228.4,630.1h89.7    c57.6,0,104.3,46.7,104.3,104.3v0c0,16.6-13.4,30-30,30h-164c-16.6,0-30-13.4-30-30v-74.3C198.3,643.5,211.8,630.1,228.4,630.1    L228.4,630.1z" />
                <path fill="#E54C66" d="M228.4,647.9c-6.8,0-12.3,5.5-12.3,12.3v74.3c0,6.8,5.5,12.3,12.3,12.3h164c6.8,0,12.3-5.5,12.3-12.3    c0-47.7-38.8-86.5-86.5-86.5H228.4 M228.4,630.1h89.7c57.6,0,104.3,46.7,104.3,104.3v0c0,16.6-13.4,30-30,30h-164    c-16.6,0-30-13.4-30-30v-74.3C198.3,643.5,211.8,630.1,228.4,630.1L228.4,630.1z" />
            </g>
        </g>
        <g class="box">
            <path fill="#FFFFFF" d="M232.2,305.4h534.1V771H232.2L232.2,305.4z" />
            <path fill="#FCE3E9" d="M232.2,305.4h128.9V771H232.2V305.4z" />
            <path fill="#FFFFFF" d="M801.7,272.1V347c0,7.9-6.4,14.2-14.3,14.2H212.2c-7.9,0-14.3-6.4-14.3-14.2v-74.9   c0-7.9,6.4-14.3,14.3-14.3h575.2C795.3,257.8,801.7,264.2,801.7,272.1L801.7,272.1z" />
            <path fill="#FCE3E9" d="M704.1,595.5h-408c-6.5,0-11.7-5.2-11.7-11.7v-47.8c0-6.5,5.2-11.7,11.7-11.7h408c6.5,0,11.7,5.2,11.7,11.7   v47.8C715.8,590.3,710.5,595.5,704.1,595.5L704.1,595.5z" />
            <path opacity="0.2" fill="#E54C66" d="M376.8,524.4h-80.8c-6.5,0-11.7,5.2-11.7,11.7v47.8c0,6.5,5.2,11.7,11.7,11.7h80.8V524.4z" />
            <path fill="#E54C66" d="M296.1,606.7h317.1c6.2,0,11.2-5,11.2-11.2s-5-11.2-11.2-11.2H296.1c-0.3,0-0.5-0.2-0.5-0.5v-47.8   c0-0.3,0.2-0.5,0.5-0.5h408c0.3,0,0.5,0.2,0.5,0.5v47.8c0,0.3-0.2,0.5-0.5,0.5h-43.3c-6.2,0-11.2,5-11.2,11.2   c0,6.2,5,11.2,11.2,11.2h43.3c12.6,0,22.9-10.3,22.9-22.9v-47.8c0-12.6-10.3-22.9-22.9-22.9h-408c-12.6,0-22.9,10.3-22.9,22.9v47.8   C273.2,596.4,283.5,606.7,296.1,606.7L296.1,606.7z" />
            <rect x="197.9" y="257.8" fill="#FCE3E9" width="146.5" height="103.4" />
            <path fill="#E54C66" d="M786.8,267.4c2.4,0,4.3,1.9,4.3,4.3v75.7c0,2.4-1.9,4.3-4.3,4.3h-575c-2.4,0-4.3-1.9-4.3-4.3v-75.7   c0-2.4,1.9-4.3,4.3-4.3H786.8 M786.8,246.7h-575c-13.8,0-25,11.2-25,25v75.7c0,13.8,11.2,25,25,25h575c13.8,0,25-11.2,25-25v-75.7   C811.8,257.9,800.6,246.7,786.8,246.7L786.8,246.7z" />
            <path fill="#E54C66" d="M756.1,371.9v385.3c0,2.4-1.9,4.3-4.3,4.3H246.7c-2.4,0-4.3-1.9-4.3-4.3V371.9H756.1 M776.8,351.1H221.7   c0,0-0.1,0-0.1,0.1v406c0,13.8,11.2,25,25,25h505.1c13.8,0,25-11.2,25-25L776.8,351.1C776.9,351.2,776.8,351.1,776.8,351.1   L776.8,351.1z" />
        </g>
        <g class="hands-front hands">
            <g class="hand-2-front">
                <path fill="#FFFFFF" d="M834,658v55c0,18.1-15.2,32.8-33.9,32.8c-18.7,0-33.9-14.7-33.9-32.8v-55c0-18.1,15.2-32.8,33.9-32.8    c9.4,0,17.8,3.7,23.9,9.6C830.3,640.8,834,649,834,658z" />
                <path fill="#FCE3E9" d="M800.2,713.1v-55c0-12.1,6.8-22.7,16.9-28.4c-5-2.8-10.8-4.4-16.9-4.4c-18.7,0-33.9,14.7-33.9,32.8v55    c0,18.1,15.2,32.8,33.9,32.8c6.2,0,12-1.6,16.9-4.4C807,735.8,800.2,725.2,800.2,713.1L800.2,713.1z" />
                <path fill="#FFFFFF" d="M817.6,737.2v54.4c0,17.9-14.5,32.4-32.4,32.4c-17.9,0-32.4-14.5-32.4-32.4v-54.4c0-8.9,3.6-17,9.5-22.9    s14-9.5,22.9-9.5C803.1,704.8,817.6,719.3,817.6,737.2L817.6,737.2z" />
                <path fill="#FFFFFF" d="M752.8,737.2v54.4c0,17.9-14.5,32.4-32.4,32.4c-17.9,0-32.4-14.5-32.4-32.4v-59.7V720    c0-8.9,3.6-17,9.5-22.9s14-9.5,22.9-9.5c17.9,0,32.4,14.5,32.4,32.4V737.2z" />
                <path fill="#FFFFFF" d="M688,731.9v59.7c0,17.9-14.5,32.4-32.4,32.4c-17.9,0-32.4-14.5-32.4-32.4v-46.2v-13.5    c0-8.9,3.6-17.1,9.5-22.9c5.9-5.9,14-9.5,22.9-9.5C673.5,699.5,688,714,688,731.9z" />
                <path fill="#FFFFFF" d="M623.2,745.4v46.2c0,17.9-14.5,32.4-32.4,32.4c-17.9,0-32.4-14.5-32.4-32.4v-46.2c0-8.9,3.6-17,9.5-22.9    c5.9-5.9,14-9.5,22.9-9.5C608.7,713,623.2,727.5,623.2,745.4L623.2,745.4z" />
                <path fill="#FCE3E9" d="M784.2,791.6v-54.4c0-8.9,3.6-17,9.5-22.9c2.1-2.1,4.6-4,7.2-5.4c-4.6-2.6-10-4-15.7-4    c-8.9,0-17,3.6-22.9,9.5s-9.5,14-9.5,22.9v54.4c0,17.9,14.5,32.4,32.4,32.4c5.7,0,11-1.5,15.7-4    C790.9,814.4,784.2,803.8,784.2,791.6z" />
                <path fill="#FCE3E9" d="M719.4,791.6v-59.7V720c0-8.9,3.6-17,9.5-22.9c2.1-2.1,4.6-4,7.2-5.4c-4.6-2.6-10-4-15.7-4    c-8.9,0-17.1,3.6-22.9,9.5s-9.5,14-9.5,22.9v11.9v59.7c0,17.9,14.5,32.4,32.4,32.4c5.7,0,11-1.5,15.7-4    C726.1,814.4,719.4,803.8,719.4,791.6L719.4,791.6z" />
                <path fill="#FCE3E9" d="M654.5,791.6v-46.2v-13.5c0-8.9,3.6-17.1,9.5-22.9c2.1-2.1,4.6-4,7.2-5.4c-4.6-2.6-10-4-15.7-4    c-9,0-17.1,3.6-22.9,9.5s-9.5,14-9.5,22.9v13.5v46.2c0,17.9,14.5,32.4,32.4,32.4c5.7,0,11-1.5,15.7-4    C661.3,814.4,654.5,803.8,654.5,791.6z" />
                <path fill="#FCE3E9" d="M589.7,791.6v-46.2c0-8.9,3.6-17,9.5-22.9c2.1-2.1,4.6-4,7.2-5.4c-4.7-2.6-10-4-15.7-4    c-8.9,0-17,3.6-22.9,9.5s-9.5,14-9.5,22.9v46.2c0,17.9,14.5,32.4,32.4,32.4c5.7,0,11-1.5,15.7-4    C596.5,814.4,589.7,803.8,589.7,791.6z" />
                <path fill="#E54C66" d="M801.7,614.6L801.7,614.6c-22.7,0-46.5,13.6-46.5,42.2v37c-8-10.5-20.6-17.3-34.7-17.3    c-16,0-30,8.7-37.6,21.5c-7.5-6-17-9.6-27.3-9.6c-16.4,0-30.8,9.1-38.2,22.6c-7.4-5.7-16.6-9.1-26.6-9.1    c-43.6,0-43.6,42.6-43.6,43.6l0,46.2c0,24,19.5,43.6,43.6,43.6c12.9,0,24.4-5.6,32.4-14.5c8,8.9,19.6,14.5,32.4,14.5    c12.9,0,24.4-5.6,32.4-14.5c8,8.9,19.6,14.5,32.4,14.5c12.9,0,24.4-5.6,32.4-14.5c8,8.9,19.6,14.5,32.4,14.5    c24,0,43.6-19.5,43.6-43.6V747c11.2-8.4,17.9-21.7,17.9-35.9v-51.4C846.7,634.8,826.5,614.6,801.7,614.6z M612,791.6    c0,11.7-9.5,21.2-21.2,21.2c-11.7,0-21.2-9.5-21.2-21.2v-46.2c0-11.7,9.5-21.2,21.2-21.2c11.7,0,21.2,9.5,21.2,21.2V791.6z     M676.8,791.6c0,11.7-9.5,21.2-21.2,21.2c-11.7,0-21.2-9.5-21.2-21.2v-59.7c0-11.7,9.5-21.2,21.2-21.2c11.7,0,21.2,9.5,21.2,21.2    V791.6z M741.6,791.6c0,11.7-9.5,21.2-21.2,21.2c-11.7,0-21.2-9.5-21.2-21.2V720c0-11.7,9.5-21.2,21.2-21.2    c11.7,0,21.2,9.5,21.2,21.2V791.6z M806.5,791.6c0,11.7-9.5,21.2-21.2,21.2v0c-11.7,0-21.2-9.5-21.2-21.2v-54.4    c0-11.7,9.5-21.2,21.2-21.2c11.7,0,21.2,9.5,21.2,21.2V791.6z M824.4,711c0,1.9-0.3,3.8-0.7,5.7c-7.4-13.7-21.8-23.1-38.4-23.1    c-2.1,0-4.2,0.2-6.3,0.5v-34.5c0-12.5,10.2-22.7,22.7-22.7v0c12.5,0,22.7,10.2,22.7,22.7V711z" />
            </g>
            <g class="hand-1-front">
                <path fill="#FFFFFF" d="M166,658v55c0,18.1,15.2,32.8,33.9,32.8c18.7,0,33.9-14.7,33.9-32.8v-55c0-18.1-15.2-32.8-33.9-32.8    c-9.4,0-17.8,3.7-23.9,9.6C169.7,640.8,166,649,166,658z" />
                <path fill="#FCE3E9" d="M199.8,713.1v-55c0-12.1-6.8-22.7-16.9-28.4c5-2.8,10.8-4.4,16.9-4.4c18.7,0,33.9,14.7,33.9,32.8v55    c0,18.1-15.2,32.8-33.9,32.8c-6.2,0-12-1.6-16.9-4.4C193,735.8,199.8,725.2,199.8,713.1L199.8,713.1z" />
                <path fill="#FFFFFF" d="M182.4,737.2v54.4c0,17.9,14.5,32.4,32.4,32.4c17.9,0,32.4-14.5,32.4-32.4v-54.4c0-8.9-3.6-17-9.5-22.9    c-5.9-5.9-14-9.5-22.9-9.5C196.9,704.8,182.4,719.3,182.4,737.2L182.4,737.2z" />
                <path fill="#FFFFFF" d="M247.2,737.2v54.4c0,17.9,14.5,32.4,32.4,32.4c17.9,0,32.4-14.5,32.4-32.4v-59.7V720    c0-8.9-3.6-17-9.5-22.9c-5.9-5.9-14-9.5-22.9-9.5c-17.9,0-32.4,14.5-32.4,32.4V737.2z" />
                <path fill="#FFFFFF" d="M312,731.9v59.7c0,17.9,14.5,32.4,32.4,32.4c17.9,0,32.4-14.5,32.4-32.4v-46.2v-13.5    c0-8.9-3.6-17.1-9.5-22.9s-14-9.5-22.9-9.5C326.5,699.5,312,714,312,731.9z" />
                <path fill="#FFFFFF" d="M376.8,745.4v46.2c0,17.9,14.5,32.4,32.4,32.4c17.9,0,32.4-14.5,32.4-32.4v-46.2c0-8.9-3.6-17-9.5-22.9    c-5.9-5.9-14-9.5-22.9-9.5C391.3,713,376.8,727.5,376.8,745.4L376.8,745.4z" />
                <path fill="#FCE3E9" d="M215.8,791.6v-54.4c0-8.9-3.6-17-9.5-22.9c-2.1-2.1-4.6-4-7.2-5.4c4.7-2.6,10-4,15.7-4    c8.9,0,17,3.6,22.9,9.5c5.9,5.9,9.5,14,9.5,22.9v54.4c0,17.9-14.5,32.4-32.4,32.4c-5.7,0-11-1.5-15.7-4    C209.1,814.4,215.8,803.8,215.8,791.6z" />
                <path fill="#FCE3E9" d="M280.6,791.6v-59.7V720c0-8.9-3.6-17-9.5-22.9c-2.1-2.1-4.6-4-7.2-5.4c4.6-2.6,10-4,15.7-4    c8.9,0,17.1,3.6,22.9,9.5s9.5,14,9.5,22.9v11.9v59.7c0,17.9-14.5,32.4-32.4,32.4c-5.7,0-11-1.5-15.7-4    C273.9,814.4,280.6,803.8,280.6,791.6L280.6,791.6z" />
                <path fill="#FCE3E9" d="M345.5,791.6v-46.2v-13.5c0-8.9-3.6-17.1-9.5-22.9c-2.1-2.1-4.6-4-7.2-5.4c4.6-2.6,10-4,15.7-4    c9,0,17.1,3.6,22.9,9.5c5.9,5.9,9.5,14,9.5,22.9v13.5v46.2c0,17.9-14.5,32.4-32.4,32.4c-5.7,0-11-1.5-15.7-4    C338.7,814.4,345.5,803.8,345.5,791.6z" />
                <path fill="#FCE3E9" d="M410.3,791.6v-46.2c0-8.9-3.6-17-9.5-22.9c-2.1-2.1-4.6-4-7.2-5.4c4.7-2.6,10-4,15.7-4    c8.9,0,17,3.6,22.9,9.5c5.9,5.9,9.5,14,9.5,22.9v46.2c0,17.9-14.5,32.4-32.4,32.4c-5.7,0-11-1.5-15.7-4    C403.5,814.4,410.3,803.8,410.3,791.6z" />
                <path fill="#E54C66" d="M198.3,614.6L198.3,614.6c22.7,0,46.5,13.6,46.5,42.2v37c8-10.5,20.6-17.3,34.7-17.3    c16,0,30,8.7,37.6,21.5c7.5-6,17-9.6,27.3-9.6c16.4,0,30.8,9.1,38.2,22.6c7.4-5.7,16.6-9.1,26.6-9.1c43.6,0,43.6,42.6,43.6,43.6    l0,46.2c0,24-19.5,43.6-43.6,43.6c-12.9,0-24.4-5.6-32.4-14.5c-8,8.9-19.6,14.5-32.4,14.5c-12.9,0-24.4-5.6-32.4-14.5    c-8,8.9-19.6,14.5-32.4,14.5c-12.9,0-24.4-5.6-32.4-14.5c-8,8.9-19.6,14.5-32.4,14.5c-24,0-43.6-19.5-43.6-43.6V747    c-11.2-8.4-17.9-21.7-17.9-35.9v-51.4C153.3,634.8,173.5,614.6,198.3,614.6z M388,791.6c0,11.7,9.5,21.2,21.2,21.2    c11.7,0,21.2-9.5,21.2-21.2v-46.2c0-11.7-9.5-21.2-21.2-21.2c-11.7,0-21.2,9.5-21.2,21.2V791.6z M323.2,791.6    c0,11.7,9.5,21.2,21.2,21.2c11.7,0,21.2-9.5,21.2-21.2v-59.7c0-11.7-9.5-21.2-21.2-21.2c-11.7,0-21.2,9.5-21.2,21.2V791.6z     M258.4,791.6c0,11.7,9.5,21.2,21.2,21.2c11.7,0,21.2-9.5,21.2-21.2V720c0-11.7-9.5-21.2-21.2-21.2c-11.7,0-21.2,9.5-21.2,21.2    V791.6z M193.5,791.6c0,11.7,9.5,21.2,21.2,21.2v0c11.7,0,21.2-9.5,21.2-21.2v-54.4c0-11.7-9.5-21.2-21.2-21.2    c-11.7,0-21.2,9.5-21.2,21.2V791.6z M175.6,711c0,1.9,0.3,3.8,0.7,5.7c7.4-13.7,21.8-23.1,38.4-23.1c2.1,0,4.2,0.2,6.3,0.5v-34.5    c0-12.5-10.2-22.7-22.7-22.7v0c-12.5,0-22.7,10.2-22.7,22.7V711z" />
            </g>
        </g>
    </g>
    <g class="truck-group">
        <path class="ground-line" fill="#FFBBC6" d="M163.1,826.9h673.9c3.3,0,6.1,2.7,6.1,6.1v0c0,3.3-2.7,6.1-6.1,6.1H163.1  c-3.3,0-6.1-2.7-6.1-6.1v0C157,829.6,159.7,826.9,163.1,826.9z" />
        <line class="sky-line-1 sky-line" fill="none" stroke="#E54C66" stroke-width="18" stroke-linecap="round" stroke-miterlimit="10" x2="1061.8" y2="175.4" x1="-59.6" y1="175.4" />
        <line class="sky-line-2 sky-line" fill="none" stroke="#E54C66" stroke-width="18" stroke-linecap="round" stroke-miterlimit="10" x2="1061.8" y2="365.3" x1="-59.6" y1="365.3" />
        <line class="sky-line-3 sky-line" fill="none" stroke="#E54C66" stroke-width="18" stroke-linecap="round" stroke-miterlimit="10" x2="1061.8" y2="567.6" x1="-59.6" y1="567.6" />
        <g class="truck">
            <path fill="#FCE3E9" d="M568.5,397.6H223.4c-30.6,0-55.3,24.8-55.3,55.3v252.3c0,30.6,24.8,55.3,55.3,55.3h400.4V452.9   C623.8,422.4,599,397.6,568.5,397.6z" />
            <path fill="#E54C66" d="M623.8,771.6H223.4c-36.6,0-66.4-29.8-66.4-66.4V452.9c0-36.6,29.8-66.4,66.4-66.4h345.1   c36.6,0,66.4,29.8,66.4,66.4v307.6C634.9,766.7,629.9,771.6,623.8,771.6z M223.4,408.7c-24.4,0-44.3,19.9-44.3,44.3v252.3   c0,24.4,19.9,44.3,44.3,44.3h389.3V452.9c0-24.4-19.9-44.3-44.3-44.3H223.4z" />
            <path opacity="0.1" fill="#FFFFFF" d="M809.3,760.6H623.8V492.8h102.8c7.3,0,14.1,3.7,18.3,9.9l82.7,121.5c2.8,4.1,4.3,9,4.3,14   v98.3C831.9,749.8,821.8,760.6,809.3,760.6z" />
            <path fill="#E54C66" d="M809.3,771.6H623.8c-6.1,0-11.1-5-11.1-11.1V492.8c0-6.1,5-11.1,11.1-11.1h102.8c10.9,0,21.2,5.5,27.5,14.8   l82.7,121.5c4,6,6.2,12.9,6.2,20.2v98.3C843,755.9,827.9,771.6,809.3,771.6L809.3,771.6z M634.9,749.5h174.4   c6.4,0,11.6-5.8,11.6-12.9v-98.3c0-2.8-0.8-5.5-2.4-7.8L735.8,509c-2.2-3.2-5.6-5.1-9.2-5.1h-91.8V749.5z" />
            <g class="tire-1">
                <circle fill="#FFFFFF" cx="322.5" cy="760.6" r="55.3" />
                <path fill="#E54C66" d="M322.5,826.9c-36.6,0-66.4-29.8-66.4-66.4s29.8-66.4,66.4-66.4s66.4,29.8,66.4,66.4    S359.1,826.9,322.5,826.9z M322.5,716.3c-24.4,0-44.3,19.9-44.3,44.3s19.9,44.3,44.3,44.3s44.3-19.9,44.3-44.3    S346.9,716.3,322.5,716.3z" />
                <path fill="#FFBBC6" d="M322.5,786.7c-14.4,0-26.1-11.7-26.1-26.1s11.7-26.1,26.1-26.1s26.1,11.7,26.1,26.1c0,7-2.7,13.5-7.7,18.5    c-1.2,1.2-3.1,1.2-4.2,0c-1.2-1.2-1.2-3.1,0-4.2c3.8-3.8,5.9-8.9,5.9-14.2c0-11.1-9-20.1-20.1-20.1s-20.1,9-20.1,20.1    s9,20.1,20.1,20.1c1.7,0,3,1.3,3,3S324.1,786.7,322.5,786.7z" />
            </g>
            <g class="tire-2">
                <circle fill="#FFFFFF" cx="727.9" cy="760.6" r="55.3" />
                <path fill="#FFBBC6" d="M727.9,786.7c-14.4,0-26.1-11.7-26.1-26.1s11.7-26.1,26.1-26.1s26.1,11.7,26.1,26.1c0,7-2.7,13.6-7.7,18.5    c-1.2,1.2-3.1,1.2-4.2,0c-1.2-1.2-1.2-3.1,0-4.2c3.8-3.8,5.9-8.9,5.9-14.2c0-11.1-9-20.1-20.1-20.1c-11.1,0-20.1,9-20.1,20.1    s9,20.1,20.1,20.1c1.7,0,3,1.3,3,3S729.5,786.7,727.9,786.7z" />
                <path fill="#E54C66" d="M727.9,826.9c-36.6,0-66.4-29.8-66.4-66.4s29.8-66.4,66.4-66.4c36.6,0,66.4,29.8,66.4,66.4    S764.5,826.9,727.9,826.9z M727.9,716.3c-24.4,0-44.3,19.9-44.3,44.3s19.9,44.3,44.3,44.3c24.4,0,44.3-19.9,44.3-44.3    S752.3,716.3,727.9,716.3z" />
            </g>
        </g>
        <g class="clouds">
            <path class="cloud-2" fill="#FCE3E9" d="M565.8,270c4.5-19.2-7.4-38.4-26.6-42.9c-10.4-2.4-21.4-0.1-29.9,6.4   c-4.6-18.1-23-29-41.1-24.4c-18.1,4.6-29,23-24.4,41.1c0.2,0.9,0.5,1.7,0.7,2.5c-13.1,1.5-23.9,10.9-27.3,23.6   c-15.9-4.8-32.7,4.3-37.5,20.2c-4.8,15.9,4.3,32.7,20.2,37.5c9.8,2.9,20.3,0.7,28.1-5.9c3.4,15.3,18.5,25,33.8,21.6   c7-1.5,13.1-5.7,17.2-11.5c12.9,12,33.1,11.3,45.2-1.6c1.9-2.1,3.6-4.4,4.9-7c14.4,13.5,37,12.7,50.4-1.6   c13.5-14.4,12.7-37-1.6-50.4c-3.6-3.3-7.8-5.9-12.4-7.6H565.8z" />
            <path class="cloud-1" fill="#FCE3E9" d="M295.1,197.7c5.1-21.7-8.4-43.4-30.1-48.5c-11.8-2.8-24.2-0.1-33.8,7.3   c-5.2-20.5-26-32.9-46.5-27.6c-20.5,5.2-32.9,26-27.6,46.5c0.2,1,0.5,1.9,0.8,2.9c-14.8,1.7-27,12.3-30.9,26.7   c-18-5.4-37,4.8-42.4,22.9s4.8,37,22.9,42.4c11,3.3,23,0.8,31.8-6.7c3.8,17.3,20.9,28.2,38.2,24.4c7.9-1.7,14.9-6.4,19.5-13.1   c14.6,13.6,37.5,12.8,51.1-1.8c2.2-2.4,4.1-5,5.6-7.9c16.3,15.2,41.8,14.4,57.1-1.8c15.2-16.3,14.4-41.8-1.8-57.1   c-4-3.8-8.8-6.7-14-8.5L295.1,197.7z" />
            <path class="cloud-3" fill="#FCE3E9" d="M884.7,154.2c6.1-26.2-10.1-52.4-36.3-58.6c-14.2-3.3-29.2-0.1-40.8,8.8   c-6.3-24.7-31.4-39.7-56.1-33.4s-39.7,31.4-33.4,56.1c0.3,1.2,0.6,2.3,1,3.4c-17.9,2.1-32.7,14.9-37.3,32.2   c-21.7-6.5-44.7,5.8-51.2,27.6s5.8,44.6,27.6,51.2c13.3,4,27.8,1,38.4-8.1c4.6,20.9,25.3,34.1,46.1,29.5   c9.5-2.1,17.9-7.7,23.5-15.8c17.6,16.4,45.2,15.5,61.7-2.2c2.7-2.9,4.9-6.1,6.7-9.5c19.6,18.4,50.5,17.4,68.9-2.2   s17.4-50.5-2.2-68.9c-4.9-4.6-10.6-8.1-16.9-10.3H884.7z" />
        </g>
    </g>
</svg>