<?xml version="1.0" encoding="utf-8"?>
<!-- Generator: Adobe Illustrator 24.0.2, SVG Export Plug-In . SVG Version: 6.00 Build 0)  -->
<svg version="1.1" class="Layer_1"
    xmlns="http://www.w3.org/2000/svg"
    xmlns:xlink="http://www.w3.org/1999/xlink" x="0px" y="0px" viewBox="0 0 1000 1000" enable-background="new 0 0 1000 1000" xml:space="preserve">
    <style>

    .lid,
    .chicken,
    .tomato,
    .leaf-1,
    .leaf-2,
    .leaf-3{
        animation-duration: 4s;
        animation-iteration-count: infinite;
    }

    .chicken{
        transform-origin: 342px 281px;
        transform: translateY(-150px) rotate(-30deg);
        opacity: 0;
        animation-name: chicken;
    }

    @keyframes chicken{
        0%{transform: translateY(-150px) rotate(-30deg); opacity: 0;}
        5%{opacity: 1;}
        25%, 100%{transform: translateY(300px) rotate(0);}
    }

    .tomato{
        transform: translateY(-100px);
        opacity: 0;
        animation-name: tomato;
    }

    @keyframes tomato{
        0%, 5%{transform: translateY(-200px); opacity: 0;}
        10%{opacity: 1;}
        20%, 100%{transform: translateY(120px);}
    }

    .leaf-1{
        transform: translateY(-50px);
        opacity: 0;
        animation-name: leaf-1;
    }

    @keyframes leaf-1{
        0%{transform: translateY(-50px); opacity: 0;}
        5%{opacity: 1;}
        40%, 100%{transform: translateY(300px);}
    }

    .leaf-2{
        opacity: 0;
        animation-name: leaf-2;
    }

    @keyframes leaf-2{
        0%{transform: translate(-20px, 0); opacity: 0;}
        5%{opacity: 1;}
        30%, 100%{transform: translate(-20px, 300px);}
    }

    .leaf-3{
        transform: translateY(-200px);
        opacity: 0;
        animation-name: leaf-3;
    }

    @keyframes leaf-3{
        0%, 10%{transform: translateY(-200px); opacity: 0;}
        15%{opacity: 1;}
        40%, 100%{transform: translateY(150px);}
    }

    .lid{
        transform: translateY(-150px);
        opacity: 0;
        animation-name: lid;
    }

    @keyframes lid{
        0%, 40%{
            transform: translateY(-150px);
            opacity: 0;
        }
        45%{opacity: 1;}
        50%, 95%{transform: initial; opacity: 1;}
        100%{transform: initial; opacity: 0;}
    }

    .flame-1,
    .flame-2,
    .flame-3{
        animation-duration: 1s;
        animation-iteration-count: infinite;
    }

    .flame-1{
        transform-origin: 307px 825px;
        animation-name: flame-1;
    }

    @keyframes flame-1{
        0%, 100%{transform: skewX(-5deg) scale(1);}
        50%{transform: skewX(5deg) scale(1.05);}
    }

    .flame-2{
        transform-origin: 500px 825px;
        animation-name: flame-2;
    }

    @keyframes flame-2{
        0%, 100%{transform: scale(1);}
        50%{transform: scale(1.05);}
    }

    .flame-3{
        transform-origin: 689px 825px;
        animation-name: flame-3;
    }

    @keyframes flame-3{
        0%, 100%{transform: skewX(5deg) scale(1);}
        50%{transform: skewX(-5deg) scale(1.05);}
    }

    </style>
    <g class="food">
        <g class="chicken">
            <path fill="#FFFFFF" d="M264.2,239.8c-4.8,3.8-10.6,5.9-16.8,5.9c-7.2,0-14-2.8-19.1-7.9c-10.5-10.5-10.5-27.6,0-38.1    c5.1-5.1,11.9-7.9,19.1-7.9c2.8,0,5.6,0.4,8.2,1.3c-0.8-2.6-1.3-5.4-1.3-8.2c0-7.2,2.8-14,7.9-19.1c5.1-5.1,11.9-7.9,19.1-7.9    c7.2,0,14,2.8,19.1,7.9c9.8,9.8,10.5,25.3,2,35.9l34.8,34.8l-6.6,0.4c-8.1,0.5-15.8,3.8-21.8,9.3c-5.5,6-8.8,13.7-9.3,21.8    l-0.4,6.6L264.2,239.8z" />
            <path fill="#E54C66" d="M281.2,160.9c6.1,0,12.3,2.3,17,7c9.4,9.4,9.4,24.5,0,33.9l32.1,32.1c-8.8,0.6-17.2,4.2-23.7,10.2    c-6,6.5-9.6,14.9-10.2,23.7l-32.1-32.1c-4.7,4.7-10.8,7-16.9,7c-6.1,0-12.3-2.3-17-7c-9.4-9.4-9.4-24.5,0-33.9    c4.7-4.7,10.8-7,16.9-7s12.3,2.3,16.9,7c-9.4-9.4-9.4-24.5,0-33.9C269,163.2,275.1,160.9,281.2,160.9 M281.2,154.9    c-8,0-15.5,3.1-21.2,8.8c-6.9,6.9-9.7,16.4-8.5,25.4c-1.4-0.2-2.8-0.3-4.2-0.3c-8,0-15.5,3.1-21.2,8.8    c-11.7,11.7-11.7,30.7,0,42.4c5.7,5.7,13.2,8.8,21.2,8.8c6,0,11.7-1.7,16.5-5l28.3,28.3l9.4,9.4l0.8-13.2    c0.5-7.4,3.5-14.4,8.4-19.9c5.4-5,12.5-8,19.9-8.4l13.2-0.8l-9.4-9.4l-28.3-28.3c7.7-11.6,6.4-27.5-3.8-37.7    C296.8,158,289.2,154.9,281.2,154.9L281.2,154.9z" />
            <path fill="#FCE3E9" d="M390.8,403.1c-19.7,0-38.3-7.6-52.4-21.4c-23.8-23.8-48.6-78.8-45-114.1c0.6-9.5,4.5-18.5,11-25.5l0.1-0.1    l0.1-0.1c7-6.5,16-10.4,25.5-11c2.4-0.2,4.9-0.4,7.5-0.4c36.1,0,85.1,23.9,106.6,45.3c28.9,29.4,28.5,76.9-0.9,105.8    C429.1,395.5,410.5,403.1,390.8,403.1z" />
            <path fill="#E54C66" d="M337.5,233.5c35.3,0,83.9,23.9,104.5,44.5c27.8,28.3,27.4,73.7-0.9,101.5c-14,13.7-32.1,20.6-50.3,20.6    s-36.3-6.9-50.3-20.6c-22-22-47.8-76.1-44.1-111.7c0.6-8.8,4.2-17.2,10.2-23.7c6.5-6,14.9-9.6,23.7-10.2l0,0    C332.6,233.7,335,233.5,337.5,233.5 M337.5,227.5v6V227.5L337.5,227.5c-2.7,0-5.3,0.1-7.7,0.4c-10.1,0.7-19.8,4.9-27.3,11.8    l-0.2,0.2l-0.2,0.2c-6.9,7.5-11.1,17.1-11.8,27.3c-1.8,17.3,2.8,39.9,12.8,63.8c9,21.3,21.3,41,33,52.7    c14.7,14.4,34,22.3,54.6,22.3c20.5,0,39.9-7.9,54.5-22.3c30.6-30.1,31-79.4,0.9-110l0,0l0,0C424.3,251.9,374.3,227.5,337.5,227.5    L337.5,227.5z" />
            <path opacity="0.2" fill="#E54C66" d="M454,343.5c-27.9,28-73.1,28.2-101.2,0.3c-0.1-0.1-0.2-0.2-0.3-0.3    c-24.9-28.2-40.4-63.4-44.3-100.7c-0.5,0.5-1.1,0.8-1.6,1.3c-6,6.5-9.6,14.9-10.2,23.7c-3.7,35.6,22.1,89.6,44.1,111.7    c27.9,28,73.2,28.2,101.2,0.3c12.6-12.5,20.1-29.2,21-46.9C460.1,336.7,457.2,340.3,454,343.5L454,343.5z" />
            <path opacity="0.7" fill="#FFFFFF" d="M348,245.5c-5,0.2-9.7,2-13.4,5.3c-3.6,4.4-4.4,10.5-2.1,15.7c2.4,5.1,5.9,9.6,10.3,13    c12.6,11,27.6,19.2,39.9,30.4c8.7,9.6,18.4,18.3,28.9,25.9c5.6,3.7,12.4,5.3,19.1,4.6c7.5-1.4,13.9-6.3,17.2-13.2    c3.2-6.8,4-14.4,2.5-21.7c-2.5-11.7-8.6-22.3-17.5-30.3C410.3,253.5,379.3,242.6,348,245.5z" />
        </g>
        <g class="leaf-1">
            <path fill="#FCE3E9" d="M583.1,235.8c-0.8,0-18.9-0.1-37.3-9.3c-17.2-8.6-37.6-26.9-37.6-65.6c0-1.7,1.3-3,3-3    c0.8,0,18.9,0.1,37.3,9.3c17.2,8.6,37.6,26.9,37.6,65.6C586.1,234.5,584.8,235.8,583.1,235.8z" />
            <path fill="#E54C66" d="M511.2,160.9c0,0,71.9,0,71.9,71.9C583.1,232.8,511.2,232.8,511.2,160.9 M511.2,154.9c-3.3,0-6,2.7-6,6    c0,40.2,21.4,59.3,39.3,68.3c19,9.5,37.8,9.6,38.6,9.6c3.3,0,6-2.7,6-6c0-40.2-21.4-59.3-39.3-68.3    C530.8,155,512,154.9,511.2,154.9L511.2,154.9z" />
            <path opacity="0.5" fill="#E54C66" d="M583.1,232.8l-71.9-71.9C511.2,232.8,583.1,232.8,583.1,232.8z" />
        </g>
        <g class="leaf-2">
            <path fill="#FCE3E9" d="M706.7,251.2c-2.1,0-4.3-0.1-6.4-0.2c-0.8,0-1.5-0.4-2.1-1c-0.5-0.6-0.8-1.4-0.7-2.2    c0-0.7,1.2-17.8,10.7-35c8.8-16.1,26.8-35.3,62.3-35.3c2.1,0,4.3,0.1,6.4,0.2c0.8,0,1.5,0.4,2.1,1c0.5,0.6,0.8,1.4,0.7,2.2    c0,0.7-1.2,17.8-10.7,35C760.1,232,742.1,251.2,706.7,251.2z" />
            <path fill="#E54C66" d="M770.4,180.5c2,0,4.1,0.1,6.3,0.2c0,0-4.2,67.5-69.9,67.5c-2,0-4.1-0.1-6.3-0.2    C700.4,248,704.6,180.5,770.4,180.5 M770.4,174.5C770.4,174.5,770.4,174.5,770.4,174.5c-36.9,0-55.7,20.1-64.9,36.9    c-9.8,17.9-11,35.5-11,36.3c-0.1,1.6,0.4,3.2,1.5,4.3c1.1,1.2,2.5,1.9,4.1,2c2.2,0.1,4.5,0.2,6.6,0.2c36.9,0,55.7-20.1,64.9-36.9    c9.8-17.9,11-35.5,11-36.3c0.1-1.6-0.4-3.2-1.5-4.3c-1.1-1.2-2.5-1.9-4.1-2C774.8,174.5,772.5,174.5,770.4,174.5L770.4,174.5z" />
            <path opacity="0.5" fill="#E54C66" d="M700.4,248l76.2-67.3C704.9,176.2,700.4,248,700.4,248z" />
        </g>
        <g class="leaf-3">
            <path fill="#FCE3E9" d="M633.6,391.6c-1.7,0-3-1.3-3-3c0-38.7,20.5-57,37.6-65.6c18.4-9.2,36.5-9.3,37.3-9.3c1.7,0,3,1.3,3,3    c0,38.7-20.5,57-37.6,65.6C652.5,391.5,634.4,391.6,633.6,391.6z" />
            <path fill="#E54C66" d="M705.5,316.7c0,71.9-71.9,71.9-71.9,71.9C633.6,316.7,705.5,316.7,705.5,316.7 M705.5,310.7    c-0.8,0-19.6,0.1-38.6,9.6c-17.9,9-39.3,28.1-39.3,68.3c0,3.3,2.7,6,6,6c0.8,0,19.6-0.1,38.6-9.6c17.9-9,39.3-28.1,39.3-68.3    C711.5,313.4,708.8,310.7,705.5,310.7L705.5,310.7z" />
            <path opacity="0.5" fill="#E54C66" d="M705.5,316.7l-71.9,71.9C633.6,388.6,705.5,388.6,705.5,316.7z" />
        </g>
        <g class="tomato">
            <path fill="#E54C66" d="M583.7,390.2v12h-95.9v-12c0-26.5,21.5-47.9,47.9-47.9C562.3,342.3,583.7,363.8,583.7,390.2z" />
            <ellipse fill="#FCE3E9" cx="536" cy="387.2" rx="4.9" ry="6.9" />
            <ellipse transform="matrix(0.8487 -0.5288 0.5288 0.8487 -127.3575 329.4171)" fill="#FCE3E9" cx="512.1" cy="387.3" rx="5" ry="6.9" />
            <ellipse transform="matrix(0.8487 -0.5288 0.5288 0.8487 -119.1999 333.9405)" fill="#FCE3E9" cx="524.1" cy="375.3" rx="5" ry="6.9" />
            <ellipse transform="matrix(0.5288 -0.8487 0.8487 0.5288 -64.7025 657.7554)" fill="#FCE3E9" cx="560.1" cy="387.2" rx="6.9" ry="5" />
            <ellipse transform="matrix(0.5288 -0.8487 0.8487 0.5288 -60.183 641.9257)" fill="#FCE3E9" cx="548.1" cy="375.2" rx="6.9" ry="5" />
        </g>
    </g>
    <g class="pot">
        <path fill="#FCE3E9" d="M223.8,525.9v47.9h-21.1c-9.1,0-17.4-5.2-21.5-13.3l-17.4-34.6H223.8z" />
        <path fill="#FCE3E9" d="M835.1,525.9l-17.4,34.6c-4,8.1-12.4,13.3-21.5,13.3h-21.1v-47.9H835.1z" />
        <path fill="#FCE3E9" d="M223.8,477.9v47.9h-83.9c-6.6,0-12-5.4-12-12v-24c0-6.6,5.4-12,12-12H223.8z" />
        <path fill="#FCE3E9" d="M871,489.9v24c0,6.6-5.4,12-12,12h-83.9v-47.9h83.9C865.7,477.9,871,483.3,871,489.9z" />
        <path fill="#FFFFFF" d="M775.2,741.6c0,24.2-18.1,44.7-42.2,47.6c4.1-7.2-89.7,0.4-89.7,0.4H541   c4.2-7.3-87.2-7.3-82.9,0H355.7l-1.7-0.5c1.2-3.7-92.1-7.1-88,0.1c-24.1-2.9-42.2-23.3-42.2-47.6V460.2h551.3V741.6z" />
        <path fill="#FCE3E9" d="M308.5,456h-83.9l-0.8,285.6c0,24.2,18.1,44.7,42.2,47.6c-4.1-7.2,89.1-3.8,88-0.1l1.7,0.5H458    c-4.2-7.3,112.8,0.5,116.9-7.3c-143.2-49-214.1-110.8-240.4-164.5c-17.6-35.7-2.9-78.9,32.8-96.5c9.9-4.9,20.7-7.4,31.8-7.4h376.1    l0.8-57.9L308.5,456z" />
        <path fill="#E54C66" d="M753.2,468c5.5,0,10,4.5,10,10v261.9c0,20.5-16.6,37.1-37.1,37.1H272.9c-20.5,0-37.1-16.6-37.1-37.1V478   c0-5.5,4.5-10,10-10H753.2 M753.2,443H245.8c-19.3,0-35,15.7-35,35v261.9c0,34.3,27.9,62.1,62.1,62.1h453.1   c34.3,0,62.1-27.9,62.1-62.1V478C788.2,458.7,772.5,443,753.2,443L753.2,443z" />
        <path fill="#E54C66" d="M857.1,474.9h-45.9v23h45.9v23h-68.9v23h27.4l-8.3,16.6c-1.9,3.9-5.9,6.3-10.3,6.3h-8.8v23h8.8   c13.1,0,25-7.3,30.8-19l13.4-26.9h15.9c12.7,0,23-10.3,23-23v-23C880,485.2,869.7,474.9,857.1,474.9z" />
        <path fill="#E54C66" d="M142.9,474.9h45.9v23h-45.9v23h68.9v23h-27.4l8.3,16.6c1.9,3.9,5.9,6.3,10.3,6.3h8.8v23h-8.8   c-13.1,0-25-7.3-30.8-19l-13.4-26.9h-15.9c-12.7,0-23-10.3-23-23v-23C120,485.2,130.3,474.9,142.9,474.9z" />
    </g>
    <g class="flames">
        <g class="flame-3">
            <path fill="#FFBBC6" d="M733,794.2c-8.5,15-24.4,24.3-41.7,24.3c-22.2,0-40.9-6.7-46.3-24.5c-1.2-3.7-1.7-7.6-1.7-11.5    c0-26.5,59.9-83.9,71.9-83.9c12,0,24,45.4,24,71.9C739.2,778.9,737.1,787,733,794.2z" />
            <path opacity="0.7" fill="#FFFFFF" d="M717.1,804.2c-8.9,14.3-27.6,18.7-41.9,9.8c-4-2.5-7.3-5.8-9.8-9.8c-2.6-4.3-4-9.3-4-14.4    c0-15.9,46.3-43.1,53.8-43.1s6,27.3,6,43.1C721.1,794.9,719.7,799.8,717.1,804.2L717.1,804.2z" />
            <path fill="#E54C66" d="M715.2,686.7c-7.4-1.7-47.2,32.7-69,65.9c-8.3,12.7-11.5,24.9-12,35.5c-1.3,26,60.9,58.9,98.7,18.4    C759.4,778.2,733.7,691.1,715.2,686.7z M691.3,806.6c-36,0-36-18-36-24c0-16.8,42.3-61,58.4-70.5c8.6,18.4,13.2,38.3,13.6,58.6    C727.2,790.5,711.1,806.6,691.3,806.6z" />
        </g>
        <g class="flame-2">
            <path fill="#FFBBC6" d="M541,790.9c-13.3,22.9-42.6,30.7-65.5,17.4c-14.8-8.6-23.9-24.3-23.9-41.4c0-26.5,36-71.9,47.9-71.9    s47.9,45.4,47.9,71.9C547.4,775.4,545.2,783.6,541,790.9z" />
            <path opacity="0.7" fill="#FFFFFF" d="M525.4,800.5c-8.9,14.3-27.8,18.7-42.1,9.8c-4-2.5-7.3-5.8-9.8-9.8c-2.6-4.3-4-9.3-4-14.4    c0-15.9,22.5-43.1,30-43.1s30,27.3,30,43.1C529.4,791.2,528,796.2,525.4,800.5z" />
            <path fill="#E54C66" d="M499.5,707.3c10.2,6.4,36,40,36,59.3c0,19.9-16.1,36-36,36c-19.9,0-36-16.1-36-36    C463.5,747.3,489.3,713.7,499.5,707.3 M499.5,684.3c-4.3,0-8.5,1.2-12.3,3.6c-9.8,6.2-21.2,20.4-28.7,31.5    c-11.9,18-18,33.9-18,47.2c0,32.5,26.4,59,59,59s59-26.4,59-59c0-13.3-6.1-29.2-18-47.2c-7.4-11.2-18.9-25.4-28.7-31.5    C508,685.5,503.7,684.3,499.5,684.3L499.5,684.3z" />
        </g>
        <g class="flame-1">
            <path fill="#FFBBC6" d="M266,789.2c-4.1-7.2-6.2-15.3-6.2-23.6c0-26.5,12-71.9,24-71.9s71.9,57.4,71.9,83.9    c0,3.9-0.5,7.8-1.7,11.5c-5.4,17.7-24.1,24.5-46.3,24.5C290.5,813.5,274.5,804.2,266,789.2z" />
            <path opacity="0.7" fill="#FFFFFF" d="M281.9,799.2c8.9,14.3,27.6,18.7,41.9,9.8c4-2.5,7.3-5.8,9.8-9.8c2.6-4.3,4-9.3,4-14.4    c0-15.9-46.3-43.1-53.8-43.1s-6,27.3-6,43.1C277.9,789.8,279.3,794.8,281.9,799.2z" />
            <path fill="#E54C66" d="M285.3,707c16.1,9.5,58.4,53.8,58.4,70.5c0,5.9,0,24-36,24c-19.9,0-36-16.1-36-36    C272.1,745.3,276.8,725.4,285.3,707 M285.3,683c-2.4,0-4.8,0.4-7.1,1.1c-6.5,2-11.8,6.6-14.7,12.8c-10,21.5-15.4,44.5-15.8,68.3    c0,0.1,0,0.3,0,0.4c0,33.1,26.9,60,60,60c22.7,0,39.4-6.1,49.7-18.2c10.3-12,10.3-25.4,10.3-29.8c0-8.9-3-24.1-29.1-53.8    c-11-12.5-28.3-29.8-41-37.4C293.8,684.2,289.6,683,285.3,683L285.3,683z" />
        </g>
    </g>
    <g class="lid">
        <path fill="#FFBBC6" d="M548.1,358.6v24h-96v-24c0-13.2,10.8-24,24-24h48C537.3,334.6,548.1,345.4,548.1,358.6z" />
        <path fill="#FCE3E9" d="M776.2,454.6H224c0-20.7,15.1-38.4,35.5-41.7l192.5-30.4h96L740.6,413C761.1,416.2,776.2,433.9,776.2,454.6   z" />
        <path opacity="0.1" fill="#ED3E5C" d="M750.1,415.8c-9.6,9.5-22.7,14.9-36.2,14.8H286.3c-13.6,0-26.6-5.3-36.2-14.8   c-15.7,6.5-26,21.8-26.1,38.8h552.1C776.1,437.6,765.8,422.3,750.1,415.8z" />
        <path fill="#E54C66" d="M236,466.6h528.1h24v-12c0.1-26.7-19.3-49.4-45.7-53.5l-182.4-28.8v-13.7c0-19.9-16.1-36-36-36h-48   c-19.9,0-36,16.1-36,36v13.7l-182.4,28.8c-26.4,4.1-45.8,26.8-45.7,53.5v12H236z M464.1,358.6c0-6.6,5.4-12,12-12h48   c6.6,0,12,5.4,12,12v12h-72V358.6z M261.5,424.9L261.5,424.9L453,394.6h94.2l191.6,30.2c10.2,1.6,18.8,8.3,22.9,17.8h-523   C242.7,433.2,251.3,426.4,261.5,424.9z" />
    </g>
    <path class="ground" fill="#FFBBC6" d="M219.5,825.6h561.9c3.7,0,6.8,3,6.8,6.8l0,0c0,3.7-3,6.8-6.8,6.8H219.5c-3.7,0-6.8-3-6.8-6.8  l0,0C212.7,828.6,215.7,825.6,219.5,825.6z" />
</svg>