<svg xmlns="http://www.w3.org/2000/svg" width="32" height="32" viewBox="0 0 32 32">
  <g id="calories" transform="translate(-5.021 0)">
    <path id="Path_604" data-name="Path 604" d="M33.924,19.557H27.459c.054-.485.09-.981.109-1.483a14.2,14.2,0,0,0-.712-5.113,9.29,9.29,0,0,0-2.811-4.187.647.647,0,0,0-.688-.086.623.623,0,0,0-.36.581,2.609,2.609,0,0,1-1.423,2.6,1.887,1.887,0,0,1-2.039-.246c-.792-.717-.867-2.159-.2-3.956a6.154,6.154,0,0,0-1.091-5.438A4.685,4.685,0,0,0,14.627,0a.634.634,0,0,0-.62.483A17.539,17.539,0,0,1,9.419,9a17.393,17.393,0,0,0-2.865,4.01,14.091,14.091,0,0,0-.738,11,9.867,9.867,0,0,0,5.562,5.641A12.528,12.528,0,0,0,16,30.585,3.111,3.111,0,0,0,18.611,32h4.7a.625.625,0,1,0,0-1.249h-4.7a1.827,1.827,0,0,1-1.656-1.042l0-.008a1.746,1.746,0,0,1-.163-.736V22.591a1.806,1.806,0,0,1,1.822-1.785H33.924a1.806,1.806,0,0,1,1.822,1.785v6.373a1.807,1.807,0,0,1-1.822,1.787H29.383a.625.625,0,1,0,0,1.249h4.541a3.07,3.07,0,0,0,3.1-3.036V22.592a3.069,3.069,0,0,0-3.1-3.034ZM11.873,28.5a8.633,8.633,0,0,1-4.867-4.935,12.847,12.847,0,0,1,.7-10.02,16.416,16.416,0,0,1,2.681-3.731,18.775,18.775,0,0,0,4.724-8.5A4.026,4.026,0,0,1,17.2,2.95a4.985,4.985,0,0,1,.935,4.3c-1.158,3.14-.16,4.668.538,5.3a3.175,3.175,0,0,0,3.431.465,3.588,3.588,0,0,0,2.011-2.394,10.848,10.848,0,0,1,2.181,7.416c-.019.518-.058,1.03-.117,1.527H21.8a5.516,5.516,0,0,0-2.948-2.852c-.177-.079-.357-.15-.547-.225-1.4-.557-2.857-1.133-2.767-4.5a.622.622,0,0,0-.324-.56.648.648,0,0,0-.657.019,9.955,9.955,0,0,0-4.11,5.065,9.358,9.358,0,0,0-.246,5.755A6.69,6.69,0,0,0,12.217,25.5a5.687,5.687,0,0,0,3.3,1.342v2.126a2.982,2.982,0,0,0,.022.357,11.206,11.206,0,0,1-3.664-.822Zm6.738-8.941a3.069,3.069,0,0,0-3.1,3.034v2.994a4.75,4.75,0,0,1-4.087-3.673A8.555,8.555,0,0,1,14.3,13.169a4.742,4.742,0,0,0,3.525,4.47c.178.071.346.137.5.205a4.432,4.432,0,0,1,2.057,1.714H18.611Z" fill="#e8203d"/>
    <path id="Path_605" data-name="Path 605" d="M296.319,393.739a.507.507,0,0,0-.148-.354.436.436,0,0,0-.323-.161.748.748,0,0,0-.244.046l-.175.058a1.434,1.434,0,0,1-.441.09.826.826,0,0,1-.654-.287,1.078,1.078,0,0,1-.251-.735,1.323,1.323,0,0,1,.06-.418.923.923,0,0,1,.183-.314.85.85,0,0,1,.656-.284,1.862,1.862,0,0,1,.555.128,1.023,1.023,0,0,0,.3.074.43.43,0,0,0,.343-.165.594.594,0,0,0,.137-.388c0-.2-.132-.374-.4-.507a2.092,2.092,0,0,0-.96-.2,1.986,1.986,0,0,0-1.484.59,2.219,2.219,0,0,0,.007,3,2.192,2.192,0,0,0,2.44.368A.626.626,0,0,0,296.319,393.739Z" transform="translate(-269.522 -365.926)" fill="#e8203d"/>
    <path id="Path_606" data-name="Path 606" d="M363.689,394.282a1.677,1.677,0,0,0,.49-.381c.229.314.414.471.557.471a.574.574,0,0,0,.417-.161.5.5,0,0,0,.168-.368v-3.134a.414.414,0,0,0-.175-.344.6.6,0,0,0-.4-.149q-.228,0-.548.425a2.213,2.213,0,0,0-.5-.34,1.308,1.308,0,0,0-.529-.092,1.71,1.71,0,0,0-1.332.608,2.164,2.164,0,0,0-.54,1.488,2.138,2.138,0,0,0,.537,1.47,1.7,1.7,0,0,0,1.321.6A1.3,1.3,0,0,0,363.689,394.282Zm-.983-1.235a1.124,1.124,0,0,1-.239-.742,1.143,1.143,0,0,1,.239-.742.742.742,0,0,1,.6-.294.751.751,0,0,1,.613.287,1.151,1.151,0,0,1,.231.749,1.124,1.124,0,0,1-.239.739.771.771,0,0,1-1.2,0Z" transform="translate(-333.562 -365.821)" fill="#e8203d"/>
    <path id="Path_607" data-name="Path 607" d="M225.586,362.2a.591.591,0,0,0-.829,0,.561.561,0,0,0-.175.411v4.76a.593.593,0,0,0,.595.583.562.562,0,0,0,.41-.172.554.554,0,0,0,.175-.411V366.03l1.363,1.664a.648.648,0,0,0,.5.269.574.574,0,0,0,.419-.165.525.525,0,0,0,.166-.388.573.573,0,0,0-.152-.388L226.8,365.6l.914-.79a.608.608,0,0,0,.235-.455.524.524,0,0,0-.163-.381.536.536,0,0,0-.392-.165.779.779,0,0,0-.5.253l-1.142,1.1v-2.553A.555.555,0,0,0,225.586,362.2Z" transform="translate(-205.563 -339.404)" fill="#e8203d"/>
    <path id="Path_608" data-name="Path 608" d="M446.012,368a.561.561,0,0,0,.175-.411v-4.745a.558.558,0,0,0-.175-.411.6.6,0,0,0-.838,0,.556.556,0,0,0-.173.411v4.753a.545.545,0,0,0,.173.406.588.588,0,0,0,.419.168A.576.576,0,0,0,446.012,368Z" transform="translate(-411.93 -339.617)" fill="#e8203d"/>
    <path id="Path_609" data-name="Path 609" d="M328.924,492.015h0a.625.625,0,1,0,.641.624A.629.629,0,0,0,328.92,492.015Z" transform="translate(-302.656 -461.264)" fill="#e8203d"/>
  </g>
</svg>
