<svg xmlns="http://www.w3.org/2000/svg" width="32" height="32" viewBox="0 0 32 32">
    <defs>
        <style>
            .cls-1{fill:#e81f3d}
        </style>
    </defs>
    <path id="carrot" d="M31.966 1.115l.033-1L31 .146a9.609 9.609 0 0 0-5.9 2.431 7.176 7.176 0 0 0-1.009 1.277 5.322 5.322 0 0 0-.864-1.135l-.664-.664L20.712 3.9a5.3 5.3 0 0 0-.6 6.77l-1.04 1.105a4.574 4.574 0 0 0-5.871.9c-.7.808-4.178 5.138-7.294 9.244-1.815 2.391-3.23 4.339-4.206 5.79a23.811 23.811 0 0 0-1.283 2.069c-.257.488-.735 1.4-.115 2.032a1.014 1.014 0 0 0 .735.3h.035c.327-.01.727-.02 3.727-2.01 1.6-1.064 3.671-2.511 5.982-4.184a116.823 116.823 0 0 0 9.334-7.25 4.586 4.586 0 0 0 .309-5.587l1.022-1.064A5.294 5.294 0 0 0 28.2 11.4l1.849-1.85-.664-.664a5.279 5.279 0 0 0-1.126-.858 7.176 7.176 0 0 0 1.276-1.008 9.619 9.619 0 0 0 2.43-5.9zM26.425 3.9a6.994 6.994 0 0 1 3.51-1.727A7 7 0 0 1 28.21 5.69a6.993 6.993 0 0 1-3.51 1.726A7 7 0 0 1 26.425 3.9zm-4.957 5.414a3.427 3.427 0 0 1 .572-4.081l.429-.429a3.428 3.428 0 0 1-.569 4.08zm-2.768 8.12c-.458.53-3.92 3.257-8.712 6.738-3.022 2.194-5.319 3.779-6.861 4.781.863-1.3 2.318-3.339 4.771-6.551a345.42 345.42 0 0 1 2.452-3.171 2.058 2.058 0 0 1 1.727.885l1.61-.966a3.6 3.6 0 0 0-2.032-1.575l.556-.7a2.159 2.159 0 0 1 1.869.888l1.61-.966a3.572 3.572 0 0 0-2.128-1.605c.519-.642.892-1.094 1.059-1.287a2.679 2.679 0 0 1 1.845-.927q.1-.007.2-.007a2.7 2.7 0 0 1 2.034 4.463zm8.6-7.794l-.429.429a3.424 3.424 0 0 1-4.079.571l.429-.429a3.4 3.4 0 0 1 1.686-.922l.149-.029a3.431 3.431 0 0 1 2.244.38z" class="cls-1" transform="translate(.001 -.113)"/>
</svg>
