<svg xmlns="http://www.w3.org/2000/svg" width="38.167" height="26.692" viewBox="0 0 38.167 26.692">
    <defs>
        <style>
            .cls-1{fill:#8F8F8F}
        </style>
    </defs>
    <path id="chicken" d="M32.74 92.034a17.95 17.95 0 0 0-2.275-2.779l2.159-2.083a3.494 3.494 0 0 0 3.924-.363 3.533 3.533 0 0 0 .257-5.22 3.506 3.506 0 0 0-2.077-1.008 3.516 3.516 0 1 0-6.5 2.233L25.383 85.7A17.871 17.871 0 0 0 0 101.945v2.218h32.109a6.074 6.074 0 0 0 6.058-6.075v-.01a6.078 6.078 0 0 0-5.427-6.043zm-1.327-9.261L30.44 82a1.289 1.289 0 0 1-.107-.1 1.282 1.282 0 1 1 2.18-.8 1.571 1.571 0 0 0 .451 1.237 1.594 1.594 0 0 0 1.257.467 1.283 1.283 0 1 1-.655 2.318 1.325 1.325 0 0 1-.2-.177l-.773-.856-6.389 6.163a5.127 5.127 0 0 0-1.048-1.141zM17.823 101.8a4.169 4.169 0 0 1-2.728-7.6l5.122-3.5a2.974 2.974 0 0 1 3.783.371 3 3 0 0 1 .356 3.792L20.869 100a4.142 4.142 0 0 1-3.046 1.8zm.038-15.529a15.66 15.66 0 0 1 5.839 1.136l-.666.675a5.2 5.2 0 0 0-4.071.778l-5.122 3.5a6.421 6.421 0 0 0-1.174 9.566H2.236a15.665 15.665 0 0 1 15.625-15.651zm18.07 11.812a3.832 3.832 0 0 1-3.823 3.834H22.2a6.457 6.457 0 0 0 .514-.66l3.486-5.133a5.232 5.232 0 0 0 .861-3.587l1.79-1.727a15.713 15.713 0 0 1 2.3 2.9l.328.531h.623a3.832 3.832 0 0 1 3.823 3.833v.01z" class="cls-1" transform="translate(0 -77.47)"/>
</svg>
