<svg xmlns="http://www.w3.org/2000/svg" width="32" height="32" viewBox="0 0 32 32">
  <path id="meat"
        d="M-9448.092,500.941a8.915,8.915,0,0,1-6.337-2.62,8.614,8.614,0,0,1-2.57-6.178,8.711,8.711,0,0,1,4.191-7.438,2.558,2.558,0,0,0,1.227-2.221c0-.19,0-.38,0-.57a13.179,13.179,0,0,1,3.992-9.209,13.244,13.244,0,0,1,9.3-3.764h.021a13.213,13.213,0,0,1,9.385,3.895A13.166,13.166,0,0,1-9425,482.21a17.021,17.021,0,0,1-6.69,13.339,26.272,26.272,0,0,1-16.351,5.392Zm1.825-26.888a11.311,11.311,0,0,0-3.425,7.9c0,.161,0,.325,0,.489a4.461,4.461,0,0,1-2.129,3.866,6.834,6.834,0,0,0-3.29,5.839,6.742,6.742,0,0,0,2.015,4.839,7.041,7.041,0,0,0,5,2.067h.04a24.372,24.372,0,0,0,15.176-4.975,15.176,15.176,0,0,0,5.99-11.872,11.3,11.3,0,0,0-3.335-8.043,11.335,11.335,0,0,0-8.051-3.342h-.019A11.362,11.362,0,0,0-9446.267,474.053Zm-7.272,18.126a5.334,5.334,0,0,1,3.843-5.1,2.529,2.529,0,0,0,1.771-2.912,9.75,9.75,0,0,1-.2-1.953,9.835,9.835,0,0,1,9.833-9.814,9.832,9.832,0,0,1,9.831,9.814,13.645,13.645,0,0,1-5.457,10.69,22.856,22.856,0,0,1-14.307,4.585A5.317,5.317,0,0,1-9453.539,492.178Zm7.306-9.968a8,8,0,0,0,.156,1.581,4.379,4.379,0,0,1-.551,3.152,4.392,4.392,0,0,1-2.547,1.944,3.443,3.443,0,0,0-2.478,3.292,3.431,3.431,0,0,0,3.43,3.422,20.977,20.977,0,0,0,13.125-4.17,11.8,11.8,0,0,0,4.749-9.221,7.943,7.943,0,0,0-7.941-7.93A7.944,7.944,0,0,0-9446.233,482.21Zm3.858-.2a4.02,4.02,0,0,1,4.019-4.011,4.02,4.02,0,0,1,4.019,4.011,4.02,4.02,0,0,1-4.019,4.011A4.02,4.02,0,0,1-9442.375,482.006Zm1.89,0a2.13,2.13,0,0,0,2.129,2.127,2.13,2.13,0,0,0,2.129-2.127,2.13,2.13,0,0,0-2.129-2.127A2.13,2.13,0,0,0-9440.485,482.006Z"
        transform="translate(9456.999 -468.94)" fill="#e8203d"/>
</svg>
