<svg xmlns="http://www.w3.org/2000/svg" width="22" height="22" viewBox="0 0 22 22">
  <path id="meat"
        d="M-9450.877,490.94a6.126,6.126,0,0,1-4.355-1.8,5.916,5.916,0,0,1-1.768-4.247,6,6,0,0,1,2.881-5.114,1.767,1.767,0,0,0,.846-1.527q-.006-.2,0-.392a9.067,9.067,0,0,1,2.744-6.331,9.1,9.1,0,0,1,6.391-2.588h.018a9.081,9.081,0,0,1,6.449,2.678,9.045,9.045,0,0,1,2.672,6.445,11.706,11.706,0,0,1-4.6,9.17,18.063,18.063,0,0,1-11.242,3.707Zm1.256-18.485a7.77,7.77,0,0,0-2.355,5.434c0,.111,0,.223,0,.336a3.072,3.072,0,0,1-1.463,2.658,4.7,4.7,0,0,0-2.262,4.014,4.632,4.632,0,0,0,1.385,3.327,4.839,4.839,0,0,0,3.439,1.421h.027a16.756,16.756,0,0,0,10.434-3.42,10.428,10.428,0,0,0,4.117-8.162,7.763,7.763,0,0,0-2.291-5.53,7.794,7.794,0,0,0-5.535-2.3h-.014A7.807,7.807,0,0,0-9449.621,472.455Zm-5,12.461a3.666,3.666,0,0,1,2.641-3.508,1.74,1.74,0,0,0,1.219-2,6.712,6.712,0,0,1-.137-1.343,6.763,6.763,0,0,1,6.76-6.747,6.759,6.759,0,0,1,6.76,6.747,9.376,9.376,0,0,1-3.752,7.349,15.714,15.714,0,0,1-9.836,3.152A3.655,3.655,0,0,1-9454.621,484.916Zm5.023-6.853a5.469,5.469,0,0,0,.107,1.087,3.019,3.019,0,0,1-.379,2.167,3.021,3.021,0,0,1-1.75,1.336,2.366,2.366,0,0,0-1.705,2.263,2.36,2.36,0,0,0,2.357,2.353,14.42,14.42,0,0,0,9.023-2.867,8.1,8.1,0,0,0,3.264-6.339,5.461,5.461,0,0,0-5.459-5.451A5.461,5.461,0,0,0-9449.6,478.063Zm2.65-.14a2.764,2.764,0,0,1,2.764-2.758,2.764,2.764,0,0,1,2.764,2.758,2.764,2.764,0,0,1-2.764,2.758A2.764,2.764,0,0,1-9446.947,477.923Zm1.3,0a1.463,1.463,0,0,0,1.463,1.462,1.463,1.463,0,0,0,1.463-1.462,1.463,1.463,0,0,0-1.463-1.462A1.463,1.463,0,0,0-9445.646,477.923Z"
        transform="translate(9457 -468.94)" fill="#393939"/>
</svg>
