<svg xmlns="http://www.w3.org/2000/svg" xmlns:xlink="http://www.w3.org/1999/xlink" id="_003-fast-delivery" width="100" height="118.896" data-name="003-fast-delivery" viewBox="0 0 100 118.896">
    <defs>
        <style>
            .cls-1{fill:url(#linear-gradient)}.cls-2{fill:url(#linear-gradient-2)}.cls-3{fill:url(#linear-gradient-4)}.cls-4{fill:url(#linear-gradient-5)}.cls-5{fill:url(#linear-gradient-6)}.cls-6{fill:url(#linear-gradient-7)}.cls-7{fill:url(#linear-gradient-8)}.cls-8{fill:url(#linear-gradient-9)}.cls-9{fill:url(#linear-gradient-10)}.cls-10{fill:url(#linear-gradient-11)}.cls-11{fill:url(#linear-gradient-12)}.cls-12{fill:url(#linear-gradient-14)}.cls-13{fill:url(#linear-gradient-15)}
        </style>
        <linearGradient id="linear-gradient" x1=".5" x2=".5" y1=".022" y2="1.516" gradientUnits="objectBoundingBox">
            <stop offset="0" stop-color="#ffd459"/>
            <stop offset=".319" stop-color="#ffcb40"/>
            <stop offset=".993" stop-color="#ffb401"/>
            <stop offset="1" stop-color="#ffb400"/>
        </linearGradient>
        <linearGradient id="linear-gradient-2" x1=".642" x2="-1.926" y1=".433" y2="1.584" gradientUnits="objectBoundingBox">
            <stop offset="0" stop-color="#e58200" stop-opacity="0"/>
            <stop offset=".04" stop-color="#e27f04" stop-opacity=".039"/>
            <stop offset=".467" stop-color="#c15d2f" stop-opacity=".467"/>
            <stop offset=".802" stop-color="#ad4949" stop-opacity=".8"/>
            <stop offset="1" stop-color="#a64153"/>
        </linearGradient>
        <linearGradient id="linear-gradient-4" x1=".511" x2=".213" y1=".346" y2="3.275" xlink:href="#linear-gradient-2"/>
        <linearGradient id="linear-gradient-5" x1=".51" x2=".283" y1=".613" y2="2.94" xlink:href="#linear-gradient-2"/>
        <linearGradient id="linear-gradient-6" x1=".515" x2=".37" y1=".486" y2="2.827" xlink:href="#linear-gradient-2"/>
        <linearGradient id="linear-gradient-7" x1=".524" x2=".15" y1=".582" y2="2.265" xlink:href="#linear-gradient-2"/>
        <linearGradient id="linear-gradient-8" x1=".534" x2=".069" y1=".484" y2="-1.308" xlink:href="#linear-gradient-2"/>
        <linearGradient id="linear-gradient-9" x2="1" y1=".5" y2=".5" gradientUnits="objectBoundingBox">
            <stop offset="0" stop-color="#8be1e2"/>
            <stop offset=".187" stop-color="#87e1e1"/>
            <stop offset=".356" stop-color="#7ce2dd"/>
            <stop offset=".517" stop-color="#6ae2d7"/>
            <stop offset=".674" stop-color="#50e4ce"/>
            <stop offset=".828" stop-color="#2fe5c2"/>
            <stop offset=".977" stop-color="#07e7b4"/>
            <stop offset="1" stop-color="#00e7b2"/>
        </linearGradient>
        <linearGradient id="linear-gradient-10" x1=".778" x2="-.181" y1=".896" y2=".1" gradientUnits="objectBoundingBox">
            <stop offset=".003" stop-color="#00e7b2" stop-opacity="0"/>
            <stop offset=".431" stop-color="#1bc4b7" stop-opacity=".427"/>
            <stop offset="1" stop-color="#3b9abe"/>
        </linearGradient>
        <linearGradient id="linear-gradient-11" x1=".868" x2="-.553" y1=".719" y2="-.077" xlink:href="#linear-gradient-10"/>
        <linearGradient id="linear-gradient-12" x2="1" y1=".5" y2=".5" gradientUnits="objectBoundingBox">
            <stop offset="0" stop-color="#fffcf8"/>
            <stop offset=".188" stop-color="#faf8f6"/>
            <stop offset=".404" stop-color="#eceef2"/>
            <stop offset=".635" stop-color="#d5dcea"/>
            <stop offset=".875" stop-color="#b5c4df"/>
            <stop offset="1" stop-color="#a1b5d8"/>
        </linearGradient>
        <linearGradient id="linear-gradient-14" x1=".5" x2=".5" y1=".359" y2="1.264" gradientUnits="objectBoundingBox">
            <stop offset="0" stop-color="#3b395f"/>
            <stop offset=".802" stop-color="#1b1f3a"/>
            <stop offset="1" stop-color="#131830"/>
        </linearGradient>
        <linearGradient id="linear-gradient-15" x1=".5" x2=".5" y1=".359" y2="1.264" xlink:href="#linear-gradient-14"/>
    </defs>
    <path id="Path_995" d="M60.093 233.7l-39.909-11.966H9.025a4.714 4.714 0 0 0 0 9.428H12a4.709 4.709 0 0 1 4.028 4.829 4.783 4.783 0 0 1-4.818 4.544H4.83a4.788 4.788 0 0 0-4.824 4.542 4.713 4.713 0 0 0 4.711 4.886h15.467v10.313a3 3 0 0 1-3 3 4.714 4.714 0 1 0 0 9.428h1.357a1.639 1.639 0 0 1 1.639 1.639 4.89 4.89 0 0 0 3.485 4.683l31.214 9.355a18.158 18.158 0 0 0 10.419 0l31.214-9.355a4.89 4.89 0 0 0 3.488-4.688v-52.6zm0 0" class="cls-1" data-name="Path 995" transform="translate(-.002 -170.244)"/>
    <path id="Path_996" d="M258.77 233.7v55.444a18.155 18.155 0 0 0 5.21-.764l28.5-8.543 2.71-.812a4.89 4.89 0 0 0 3.485-4.683v-52.6zm0 0" class="cls-2" data-name="Path 996" transform="translate(-198.678 -170.244)"/>
    <path id="Path_997" d="M123.244 178.531L86.91 188.2l39.909 11.961 39.909-11.961-36.333-9.673a13.889 13.889 0 0 0-7.151.004zm0 0" class="cls-1" data-name="Path 997" transform="translate(-66.728 -136.713)"/>
    <path id="Path_998" d="M207 194.827l22.1-6.623-36.333-9.673a13.893 13.893 0 0 0-7.152 0l-17.469 4.651zm0 0" class="cls-3" data-name="Path 998" transform="translate(-129.098 -136.713)"/>
    <path id="Path_999" d="M49.318 231.162H23.269a4.714 4.714 0 1 1 0-9.428h11.159l14.89 4.463zm0 0" class="cls-4" data-name="Path 999" transform="translate(-14.246 -170.244)"/>
    <path id="Path_1000" d="M35.072 312.123H4.714a4.714 4.714 0 1 1 0-9.428h30.358zm0 0" class="cls-5" data-name="Path 1000" transform="translate(0 -232.404)"/>
    <path id="Path_1001" d="M76.308 410.029H58.421a4.714 4.714 0 1 1 0-9.428h17.887zm0 0" class="cls-6" data-name="Path 1001" transform="translate(-41.235 -307.574)"/>
    <path id="Path_1002" d="M188.809 178.531a13.893 13.893 0 0 0-7.152 0l-18.665 4.97 14.279 14.279 7.963 2.386 39.909-11.96zm0 0" class="cls-7" data-name="Path 1002" transform="translate(-125.142 -136.713)"/>
    <path id="Path_1003" d="M175.5 26.457a26.44 26.44 0 1 0-15.976 24.3 1.225 1.225 0 0 1 1.354.256l2.928 2.927a1.223 1.223 0 0 0 2.088-.865v-5.653a1.214 1.214 0 0 1 .419-.921 26.4 26.4 0 0 0 9.187-20.044zm0 0" class="cls-8" data-name="Path 1003" transform="translate(-94.116)"/>
    <path id="Path_1004" d="M208.615 78.094a26.573 26.573 0 0 0 6.236-7.895L187.74 43.088a5.238 5.238 0 0 0-3.921-1.939c-3.388 0-6.135 3.759-6.135 8.4a9.432 9.432 0 0 0 2.836 7.075 6.673 6.673 0 0 0 .61.61c.061.07.123.136.187.2l-.943 15.239a3.442 3.442 0 0 0 1.319 2.926l8.9 8.9q.377.011.756.011a26.356 26.356 0 0 0 10.481-2.159 1.226 1.226 0 0 1 1.355.256l2.927 2.927a1.223 1.223 0 0 0 2.088-.865v-5.654a1.214 1.214 0 0 1 .415-.921zm0 0" class="cls-9" data-name="Path 1004" transform="translate(-136.422 -31.593)"/>
    <path id="Path_1005" d="M251.3 41.958v1.412a13.068 13.068 0 0 0-1.647-1.533 1.087 1.087 0 0 0-1-.688h-.023a1.1 1.1 0 0 0-1.084 1.108v.982c-.1-.079-1.271-1.326-1.571-1.365a.7.7 0 0 0-1.209-.385c-1.379 1.54-2.26 5.431-2.26 8.056a9.435 9.435 0 0 0 2.837 7.076 6.78 6.78 0 0 0 .61.61c.062.07.124.136.188.2l-.943 15.239a3.442 3.442 0 0 0 1.319 2.926l8.537 8.537a34438.711 34438.711 0 0 1 1.219 1.219 3.413 3.413 0 0 0 .523.532 1.217 1.217 0 0 0 1.172-1.221v-5.648a1.214 1.214 0 0 1 .419-.921 26.4 26.4 0 0 0 9.183-20.044c0-.522-.016-1.04-.046-1.554l-15.008-15.007a.7.7 0 0 0-1.216.469zm0 0" class="cls-10" data-name="Path 1005" transform="translate(-186.19 -31.593)"/>
    <path id="Path_1006" d="M189.954 49.545c0-4.638-2.747-8.4-6.136-8.4s-6.135 3.759-6.135 8.4c0 3.424 1.5 6.368 3.647 7.674l-.956 15.453a3.451 3.451 0 1 0 6.889 0l-.956-15.453c2.148-1.306 3.647-4.249 3.647-7.674zm0 0" class="cls-11" data-name="Path 1006" transform="translate(-136.422 -31.593)"/>
    <path id="Path_1007" d="M254.774 49.545c0-2.626-.88-6.517-2.259-8.057a.7.7 0 0 0-1.216.469v8.651a.8.8 0 0 1-.758.815.782.782 0 0 1-.806-.782v-8.385a1.1 1.1 0 0 0-1.084-1.108h-.023a1.1 1.1 0 0 0-1.084 1.108v8.353a.8.8 0 0 1-.758.815.782.782 0 0 1-.806-.782v-8.684a.7.7 0 0 0-1.216-.469c-1.379 1.54-2.26 5.431-2.26 8.057 0 3.424 1.5 6.368 3.647 7.674l-.956 15.453a3.451 3.451 0 1 0 6.889 0l-.956-15.453c2.148-1.307 3.646-4.25 3.646-7.675zm0 0" class="cls-11" data-name="Path 1007" transform="translate(-186.19 -31.593)"/>
    <path id="Path_1008" d="M289.526 434.664l-13.846 4.149a1.19 1.19 0 0 0-.848 1.139v5.748a1.19 1.19 0 0 0 1.53 1.139l13.847-4.15a1.19 1.19 0 0 0 .847-1.139v-5.75a1.189 1.189 0 0 0-1.53-1.136zm0 0" class="cls-12" data-name="Path 1008" transform="translate(-211.011 -333.688)"/>
    <path id="Path_1009" d="M289.526 411.668l-13.846 4.15a1.189 1.189 0 0 0-.848 1.138v1.117a1.189 1.189 0 0 0 1.53 1.138l13.847-4.149a1.19 1.19 0 0 0 .847-1.139v-1.116a1.189 1.189 0 0 0-1.53-1.139zm0 0" class="cls-13" data-name="Path 1009" transform="translate(-211.011 -316.032)"/>
</svg>
