<svg xmlns="http://www.w3.org/2000/svg" xmlns:xlink="http://www.w3.org/1999/xlink" id="_001-salad" width="100" height="68.169" data-name="001-salad" viewBox="0 0 100 68.169">
    <defs>
        <style>
            .cls-1{fill:url(#radial-gradient)}.cls-2{fill:url(#linear-gradient)}.cls-3{fill:url(#linear-gradient-2)}.cls-4{fill:url(#linear-gradient-3)}.cls-5{fill:#4c6606}.cls-6{fill:#ff5d00}.cls-7{fill:#ff931e}.cls-8{fill:#ffee95}.cls-9{fill:url(#linear-gradient-4)}.cls-10{fill:url(#linear-gradient-5)}.cls-11{fill:url(#linear-gradient-6)}.cls-12{fill:url(#linear-gradient-7)}.cls-13{fill:url(#linear-gradient-8)}.cls-14{fill:url(#linear-gradient-9)}.cls-15{fill:url(#linear-gradient-10)}.cls-16{fill:url(#linear-gradient-11)}.cls-17{fill:url(#linear-gradient-12)}.cls-18{fill:url(#linear-gradient-14)}.cls-19{fill:url(#linear-gradient-15)}.cls-20{fill:url(#linear-gradient-17)}.cls-21{fill:url(#linear-gradient-18)}.cls-22{fill:url(#linear-gradient-19)}.cls-23{fill:url(#linear-gradient-20)}
        </style>
        <radialGradient id="radial-gradient" cx=".328" cy="-.146" r="1.406" gradientTransform="matrix(.547 0 0 .897 .154 .013)">
            <stop offset="0" stop-color="#fffcf8"/>
            <stop offset=".455" stop-color="#fdfbf7"/>
            <stop offset=".619" stop-color="#f6f5f5"/>
            <stop offset=".736" stop-color="#ebedf1"/>
            <stop offset=".831" stop-color="#dae0eb"/>
            <stop offset=".912" stop-color="#c4cfe4"/>
            <stop offset=".982" stop-color="#a9bbdb"/>
            <stop offset="1" stop-color="#a1b5d8"/>
        </radialGradient>
        <linearGradient id="linear-gradient" x1=".5" x2=".5" y1=".034" y2="1.392" gradientUnits="objectBoundingBox">
            <stop offset="0" stop-color="#fffcf8"/>
            <stop offset=".188" stop-color="#faf8f6"/>
            <stop offset=".404" stop-color="#eceef2"/>
            <stop offset=".635" stop-color="#d5dcea"/>
            <stop offset=".875" stop-color="#b5c4df"/>
            <stop offset="1" stop-color="#a1b5d8"/>
        </linearGradient>
        <linearGradient id="linear-gradient-2" x1=".5" x2=".5" y1="1.161" y2="-.561" xlink:href="#linear-gradient"/>
        <linearGradient id="linear-gradient-3" x1=".5" x2=".5" y1=".297" y2="1.073" gradientUnits="objectBoundingBox">
            <stop offset="0" stop-color="#c6e56f"/>
            <stop offset=".337" stop-color="#c4e56f"/>
            <stop offset=".495" stop-color="#bce36e"/>
            <stop offset=".616" stop-color="#afe16d"/>
            <stop offset=".718" stop-color="#9ddd6b"/>
            <stop offset=".808" stop-color="#85d968"/>
            <stop offset=".89" stop-color="#68d365"/>
            <stop offset=".964" stop-color="#46cd61"/>
            <stop offset="1" stop-color="#32c95f"/>
        </linearGradient>
        <linearGradient id="linear-gradient-4" x1=".571" x2=".315" y1=".985" y2=".535" gradientUnits="objectBoundingBox">
            <stop offset="0" stop-color="#a1b5d8" stop-opacity="0"/>
            <stop offset=".034" stop-color="#9fb3d5" stop-opacity=".035"/>
            <stop offset=".451" stop-color="#8898af" stop-opacity=".451"/>
            <stop offset=".788" stop-color="#798898" stop-opacity=".788"/>
            <stop offset="1" stop-color="#748290"/>
        </linearGradient>
        <linearGradient id="linear-gradient-5" x2="1" y1=".5" y2=".5" gradientUnits="objectBoundingBox">
            <stop offset="0" stop-color="#ff6e3a"/>
            <stop offset=".16" stop-color="#ff6440"/>
            <stop offset=".427" stop-color="#ff4b52"/>
            <stop offset=".766" stop-color="#ff216e"/>
            <stop offset="1" stop-color="#ff0084"/>
        </linearGradient>
        <linearGradient id="linear-gradient-6" x1=".431" x2="-.481" y1=".491" y2="-.265" gradientUnits="objectBoundingBox">
            <stop offset=".001" stop-color="#e7eeed" stop-opacity="0"/>
            <stop offset=".773" stop-color="#f9fbfa" stop-opacity=".773"/>
            <stop offset="1" stop-color="#fff"/>
        </linearGradient>
        <linearGradient id="linear-gradient-7" x1=".328" x2=".573" y1=".484" y2=".566" gradientUnits="objectBoundingBox">
            <stop offset="0" stop-color="#ffd459"/>
            <stop offset=".23" stop-color="#ffd355"/>
            <stop offset=".436" stop-color="#ffcf4a"/>
            <stop offset=".634" stop-color="#ffc838"/>
            <stop offset=".825" stop-color="#ffbf1f"/>
            <stop offset="1" stop-color="#ffb400"/>
        </linearGradient>
        <linearGradient id="linear-gradient-8" x2="1" y1=".5" y2=".5" xlink:href="#linear-gradient-3"/>
        <linearGradient id="linear-gradient-9" x1=".413" x2="1.02" y1=".594" y2=".271" gradientUnits="objectBoundingBox">
            <stop offset=".003" stop-color="#00e7b2" stop-opacity="0"/>
            <stop offset=".431" stop-color="#1bc4b7" stop-opacity=".427"/>
            <stop offset="1" stop-color="#3b9abe"/>
        </linearGradient>
        <linearGradient id="linear-gradient-10" x1=".258" x2=".914" y1=".42" y2=".642" gradientUnits="objectBoundingBox">
            <stop offset="0" stop-color="#97a03b"/>
            <stop offset="1" stop-color="#6c7d47"/>
        </linearGradient>
        <linearGradient id="linear-gradient-11" x1="-.261" x2=".951" y1=".802" y2=".421" xlink:href="#linear-gradient-3"/>
        <linearGradient id="linear-gradient-12" x1=".516" x2=".877" y1=".494" y2=".522" xlink:href="#linear-gradient-10"/>
        <linearGradient id="linear-gradient-14" x1=".493" x2=".533" y1=".521" y2="-.192" xlink:href="#linear-gradient-9"/>
        <linearGradient id="linear-gradient-15" x1=".446" x2=".581" y1="1.155" y2=".09" gradientUnits="objectBoundingBox">
            <stop offset="0" stop-color="#c6e56f"/>
            <stop offset=".196" stop-color="#c3e46f"/>
            <stop offset=".359" stop-color="#b8e26e"/>
            <stop offset=".511" stop-color="#a7df6c"/>
            <stop offset=".656" stop-color="#8fda69"/>
            <stop offset=".796" stop-color="#6fd566"/>
            <stop offset=".931" stop-color="#49cd61"/>
            <stop offset="1" stop-color="#32c95f"/>
        </linearGradient>
        <linearGradient id="linear-gradient-17" x1=".554" x2=".413" y1=".78" y2=".052" xlink:href="#linear-gradient-9"/>
        <linearGradient id="linear-gradient-18" x1=".609" x2=".421" y1="1.113" y2=".412" xlink:href="#linear-gradient-3"/>
        <linearGradient id="linear-gradient-19" x2="1" y1=".5" y2=".5" xlink:href="#linear-gradient-5"/>
        <linearGradient id="linear-gradient-20" x1=".435" x2="-.477" y1=".492" y2="-.276" xlink:href="#linear-gradient-6"/>
    </defs>
    <path id="Path_951" d="M99.994 80.724c0-.035.006-.07.006-.105 0-6.319-22.385-11.443-50-11.443S0 74.3 0 80.618c0 .034 0 .069.005.1s-.005.048-.005.07a41.834 41.834 0 0 0 10.732 27.76q.254.288.513.574c8.4 9.236 21.034 14.525 34.323 14.685q2.194.026 4.432.027t4.432-.027c13.289-.16 25.922-5.449 34.323-14.685q.259-.285.513-.574A41.834 41.834 0 0 0 100 80.788c0-.022 0-.043-.006-.064zm0 0" class="cls-1" data-name="Path 951" transform="translate(0 -55.665)"/>
    <path id="Path_952" d="M100 80.618c0-6.319-22.385-11.443-50-11.443S0 74.3 0 80.618 22.385 92.06 50 92.06s50-5.122 50-11.442zm0 0" class="cls-2" data-name="Path 952" transform="translate(0 -55.665)"/>
    <path id="Path_953" d="M120.319 89.807c0-4.467-19.47-8.088-43.488-8.088s-43.487 3.621-43.487 8.088 19.47 8.087 43.488 8.087 43.487-3.621 43.487-8.087zm0 0" class="cls-3" data-name="Path 953" transform="translate(-26.831 -65.758)"/>
    <path id="Path_954" d="M109.267 104.322c14.715 0 27.721-1.36 35.59-3.439a6.483 6.483 0 0 0-8-2.718 7.415 7.415 0 0 0-12.842-1.346 7.484 7.484 0 0 0-8.372-1.96 8.563 8.563 0 0 0-16.385 2.657 6.479 6.479 0 0 0-6.417-.917 7.417 7.417 0 0 0-14.2 2.425 4.727 4.727 0 0 0-4.992 1.852c7.871 2.083 20.888 3.446 35.618 3.446zm0 0" class="cls-4" data-name="Path 954" transform="translate(-59.267 -72.186)"/>
    <path id="Path_955" d="M230.916 143.379a1.479 1.479 0 1 0 1.3 1.636 1.478 1.478 0 0 0-1.3-1.636zm0 0" class="cls-5" data-name="Path 955" transform="translate(-184.492 -115.368)"/>
    <path id="Path_956" d="M187.209 136.527a1.478 1.478 0 1 0 1.3 1.635 1.478 1.478 0 0 0-1.3-1.635zm0 0" class="cls-6" data-name="Path 956" transform="translate(-149.322 -109.854)"/>
    <path id="Path_957" d="M118.76 128.449a1.478 1.478 0 1 0 1.3 1.635 1.478 1.478 0 0 0-1.3-1.635zm0 0" class="cls-7" data-name="Path 957" transform="translate(-94.242 -103.354)"/>
    <path id="Path_958" d="M276.983 129.391a1.479 1.479 0 1 0 1.3 1.635 1.479 1.479 0 0 0-1.3-1.635zm0 0" class="cls-7" data-name="Path 958" transform="translate(-221.561 -104.111)"/>
    <path id="Path_959" d="M353.569 120.27a1.479 1.479 0 1 0 1.3 1.635 1.479 1.479 0 0 0-1.3-1.635zm0 0" class="cls-8" data-name="Path 959" transform="translate(-283.189 -96.772)"/>
    <path id="Path_960" d="M396.264 137.074a1.479 1.479 0 1 0 1.3 1.636 1.478 1.478 0 0 0-1.3-1.636zm0 0" class="cls-6" data-name="Path 960" transform="translate(-317.545 -110.294)"/>
    <path id="Path_961" d="M316.783 143.887a1.479 1.479 0 1 0 1.3 1.636 1.479 1.479 0 0 0-1.3-1.636zm0 0" class="cls-5" data-name="Path 961" transform="translate(-253.588 -115.777)"/>
    <path id="Path_962" d="M244.19 105.113a1.479 1.479 0 1 0 1.3 1.635 1.479 1.479 0 0 0-1.3-1.635zm0 0" class="cls-8" data-name="Path 962" transform="translate(-195.173 -84.576)"/>
    <path id="Path_963" d="M335.1 85.2c-3.783 1.819-11 3.319-20.169 4.225-.216.024-.431.043-.649.065s-.434.041-.652.06a195.76 195.76 0 0 1-9.755.635c2.659-4.1 4.547-9.8 6.274-15.451.24-.79.479-1.579.715-2.363 4.672.371 9.032.893 12.96 1.545v.006zm0 0" class="cls-9" data-name="Path 963" transform="translate(-244.521 -58.239)"/>
    <path id="Path_964" d="M277.254 130.966a5.252 5.252 0 0 1-.368 1.947q-1.246.068-2.523.123c-1.679.071-3.4.125-5.145.16q-1.039.022-2.091.032a5.318 5.318 0 1 1 10.13-2.262zm0 0" class="cls-10" data-name="Path 964" transform="translate(-214.547 -101.108)"/>
    <path id="Path_965" d="M278.959 132.105a3.716 3.716 0 0 1-1.636 3.021c-1.679.071-3.4.125-5.145.16a3.765 3.765 0 0 1-1.878-3.181 4.358 4.358 0 0 1 8.659 0zm0 0" class="cls-11" data-name="Path 965" transform="translate(-217.508 -103.198)"/>
    <path id="Path_966" d="M327.881 7.123a7.436 7.436 0 0 0-12.062-5.485 4.11 4.11 0 0 0-1.226 1.467 137.534 137.534 0 0 0-4.451 13.395c-1.726 5.651-3.615 11.35-6.274 15.45 3.91-.159 7.62-.417 11.057-.758a133.207 133.207 0 0 1 7.61-13.327 100.385 100.385 0 0 0 5.044-8.851 4.137 4.137 0 0 0 .302-1.891zm0 0" class="cls-12" data-name="Path 966" transform="translate(-244.518)"/>
    <path id="Path_967" d="M45.436 47.758q-.972-.126-1.9-.261a77.97 77.97 0 0 1-.831-.125l-.35-.054-.472-.073-1.192-.2a79.197 79.197 0 0 1-2.933-.562c-.285-.06-.565-.121-.842-.183a34.48 34.48 0 0 1-7.116-2.247 4.184 4.184 0 0 1-.19-.729c-.376-2.24 4.407-.867 4.636-.8a32.687 32.687 0 0 1-5.75-3.583c-1.168-.977-2.036-2.022-2-2.95.106-2.732 4.433-1.907 4.522-1.891-.111-.079-7.034-5.136-5.491-6.837s4.26.51 4.333.57a17.86 17.86 0 0 1-1.45-2.92.776.776 0 0 1-.027-.074.178.178 0 0 1-.007-.021c-.026-.066-.047-.134-.071-.2s-.033-.1-.047-.149a7.022 7.022 0 0 1-.208-.793c-.006-.038-.015-.077-.021-.116l-.018-.112-.015-.112c-.004-.036-.011-.084-.014-.125s0-.063-.007-.1a2.599 2.599 0 0 1-.008-.214v-.1-.1c0-.031 0-.065.009-.1l.019-.134a1.493 1.493 0 0 1 .033-.15.739.739 0 0 1 .021-.078v-.013a1.288 1.288 0 0 1 .065-.171.69.69 0 0 1 .039-.079.511.511 0 0 1 .046-.076.753.753 0 0 1 .04-.065l.007-.008a1.4 1.4 0 0 1 .88-.538c2.948-.656 5.322 5.048 5.406 5.249-.034-.222-.842-5.325 2.564-3.591 3.382 1.72 2.8 8.171 2.769 8.538.105-.32 1.8-5.312 3.662-1.316a10.788 10.788 0 0 1 .867 4.48 21.984 21.984 0 0 1-.826 5.787c.089-.137 2.385-3.613 3.4.833.498 2.16-.428 4.568-1.532 6.493zm0 0" class="cls-13" data-name="Path 967" transform="translate(-20.359 -17.084)"/>
    <path id="Path_968" d="M41.881 49.677q-.605-.1-1.192-.2a79.197 79.197 0 0 1-2.933-.562c-.285-.06-.565-.121-.842-.183a34.434 34.434 0 0 1-7.114-2.247 4.184 4.184 0 0 1-.19-.729c-.38-2.268 4.528-.833 4.642-.8a32.7 32.7 0 0 1-5.756-3.585c-1.168-.978-2.036-2.023-2-2.95.106-2.733 4.433-1.908 4.522-1.891-.111-.08-7.034-5.137-5.491-6.837s4.26.509 4.333.569a17.86 17.86 0 0 1-1.45-2.92.693.693 0 0 1-.027-.073c0-.007 0-.013-.007-.022-.026-.066-.047-.134-.071-.2s-.033-.1-.047-.149c-.024-.071-.043-.138-.063-.208a7.1 7.1 0 0 1-.145-.584l-.021-.117-.018-.112-.015-.112c-.004-.036-.011-.084-.014-.125l-.007-.095a2.615 2.615 0 0 1-.008-.214v-.1-.1c0-.031 0-.065.009-.1l.019-.134a1.464 1.464 0 0 1 .033-.151.739.739 0 0 1 .021-.078v-.013a1.278 1.278 0 0 1 .065-.17.643.643 0 0 1 .039-.08.511.511 0 0 1 .046-.076.956.956 0 0 1 .04-.065s0-.006.007-.008a86.825 86.825 0 0 1 4.977 7.127 88.574 88.574 0 0 1 3.945 6.958 77.03 77.03 0 0 1 4.713 11.336zm0 0" class="cls-14" data-name="Path 968" transform="translate(-20.359 -19.517)"/>
    <path id="Path_969" d="M83.271 146.45a5.7 5.7 0 0 0 .742.558c-.285-.06-.565-.121-.842-.183-.528-.625-.517-.938.1-.375zm0 0" class="cls-15" data-name="Path 969" transform="translate(-66.621 -117.61)"/>
    <path id="Path_970" d="M62.572 70.284q.191.6.373 1.2l-.473-.073-1.191-.2c-.052-.14-.1-.278-.153-.419-.253-.649-.492-1.3-.738-1.953-.065-.162-.119-.326-.184-.488l-.192-.486-.008-.026a2.34 2.34 0 0 0-1.328-1.3c-4.571-1.815-6.866-5.647-5.141-4.017a24.917 24.917 0 0 0 5.713 3.387l-.391-.95c-.261-.645-.518-1.292-.784-1.933-.138-.322-.33-.764-.512-1.179a4.092 4.092 0 0 0-1.083-1.476 3.408 3.408 0 0 0-.358-.283c-4.471-3.088-6.187-7.94-4.722-5.737a28.55 28.55 0 0 0 5.109 5.009l-.08-.179c-.285-.636-.546-1.284-.838-1.919s-.581-1.269-.865-1.907l-.21-.481c-.071-.16-.14-.322-.217-.478-.149-.317-.3-.632-.447-.951l-.058-.127a.188.188 0 0 1 .024-.2.214.214 0 0 1 .347 0c.028.037.054.076.082.114.207.287.406.578.609.867.1.145.2.294.291.443l.283.447c.373.6.747 1.2 1.112 1.8.192.3.352.613.525.919s.343.617.509.925l.112.205A27.328 27.328 0 0 0 57.709 52c-.5-2.5 1.55 1.718.833 6.8a4.276 4.276 0 0 0-.013 1.1 4.16 4.16 0 0 0 .386 1.325l.57 1.174c.078.157.149.319.218.481l.211.483.423.971.283.667A22.347 22.347 0 0 0 62 59.283v-.018c.026-.922.211-.8.308-.052a13.624 13.624 0 0 1-.91 6.1 2.285 2.285 0 0 0 0 1.653l.123.324c.127.327.257.655.369.99.224.669.46 1.334.682 2.004zm0 0" class="cls-16" data-name="Path 970" transform="translate(-40.951 -41.251)"/>
    <path id="Path_971" d="M115.233 136.372a77.97 77.97 0 0 1-.831-.125 13.408 13.408 0 0 0 1.2-4.038c.08-1.709.967.962-.369 4.163zm0 0" class="cls-17" data-name="Path 971" transform="translate(-92.058 -105.959)"/>
    <path id="Path_972" d="M40.357 105.205s-.124.105-.356.287c-.346.27-.919.7-1.643 1.192-.268-.033-.531-.065-.794-.1q-.972-.127-1.9-.262a48.62 48.62 0 0 1-.713-.108c-.039 0-.079-.011-.118-.018a19.524 19.524 0 0 1-.349-.053l-.473-.074c-.4-.066-.8-.134-1.189-.2a81.803 81.803 0 0 1-2.933-.561q-.427-.09-.842-.184l-.589-.136a52.73 52.73 0 0 1-.8-.192 30.63 30.63 0 0 1-5.726-1.919 8.4 8.4 0 0 1-2.078-1.324l.088-.02c-.009 0-.054-.006-.125-.015a13.7 13.7 0 0 1-2.329-.529l-.058-.019-.018-.007-.153-.056a1.63 1.63 0 0 1-.112-.043 4.383 4.383 0 0 1-.576-.263c-.026-.015-.054-.028-.078-.043s-.052-.028-.078-.043a.844.844 0 0 1-.076-.048.89.89 0 0 1-.082-.051c-.02-.013-.041-.026-.06-.041a1.69 1.69 0 0 1-.132-.1c-.021-.018-.04-.034-.063-.05s-.039-.034-.058-.054-.037-.034-.054-.052-.05-.052-.071-.077a1.061 1.061 0 0 1-.076-.093c-.013-.015-.024-.032-.037-.05s0-.007 0-.008a1.026 1.026 0 0 1-.071-.121.593.593 0 0 1-.028-.063c-.011-.021-.017-.04-.026-.064a.44.44 0 0 1-.017-.056v-.008a1.092 1.092 0 0 1 .1-.788c.755-1.519 3.384-1.224 4.819-.93.531.108.9.216.949.231-.04-.026-.319-.186-.652-.432-.909-.667-2.225-1.966-.257-2.847 1.5-.671 3.291.131 4.61 1a13.1 13.1 0 0 1 1.86 1.487 6.184 6.184 0 0 1-.8-1.8c-.156-.79.118-1.453 1.78-1.042a6.081 6.081 0 0 1 1 .346 14.539 14.539 0 0 1 5.175 4.61c-.034-.11-1.016-3.188 2.15-1.638 2.579 1.266 3.635 5.27 3.95 6.814.03.146.053.272.071.369.027.158.038.246.038.246zm0 0" class="cls-13" data-name="Path 972" transform="translate(-12.488 -75.91)"/>
    <path id="Path_973" d="M40.5 126.832s-.124.105-.356.287c-.346.27-.919.7-1.643 1.192-.268-.033-.531-.065-.794-.1q-.972-.127-1.9-.262a48.62 48.62 0 0 1-.713-.108c-.039 0-.079-.011-.118-.018a19.524 19.524 0 0 1-.349-.053l-.473-.074c-.4-.066-.8-.133-1.189-.2a81.803 81.803 0 0 1-2.933-.561q-.427-.09-.842-.184l-.589-.136a52.73 52.73 0 0 1-.8-.192 30.63 30.63 0 0 1-5.726-1.919 8.4 8.4 0 0 1-2.078-1.324l.089-.02c-.009 0-.054-.006-.125-.015a13.7 13.7 0 0 1-2.329-.529l-.058-.019-.018-.007-.153-.056a1.63 1.63 0 0 1-.112-.043 4.383 4.383 0 0 1-.576-.263c-.026-.015-.054-.028-.078-.043s-.052-.028-.078-.043a.843.843 0 0 1-.076-.048.893.893 0 0 1-.082-.051c-.02-.013-.041-.026-.06-.041a1.69 1.69 0 0 1-.132-.1c-.021-.018-.04-.034-.063-.05s-.039-.034-.058-.054-.037-.034-.054-.052-.05-.052-.071-.077a1.061 1.061 0 0 1-.076-.093c-.013-.015-.024-.032-.037-.05s0-.007 0-.008a1.027 1.027 0 0 1-.071-.121.594.594 0 0 1-.028-.063c-.011-.021-.017-.04-.026-.064a.44.44 0 0 1-.017-.056v-.008c.926.017 2.1.063 3.466.162.98.071 2.061.171 3.223.309a61.315 61.315 0 0 1 18.076 4.906c.012.161.027.249.027.249zm0 0" class="cls-18" data-name="Path 973" transform="translate(-12.627 -97.537)"/>
    <path id="Path_974" d="M63.923 115.483s-.124.105-.356.287a22.184 22.184 0 0 0-.564-.2l-.761-.266a.936.936 0 0 0-.82.1 7.261 7.261 0 0 1-2.9 1.086c-.039 0-.08-.011-.119-.018-.116-.018-.233-.034-.349-.054l-.473-.073a1.917 1.917 0 0 1 .251-.053 11.114 11.114 0 0 0 3.237-1.4c-.369-.125-.739-.255-1.107-.38-.512-.164-1.021-.334-1.53-.5-.127-.041-.255-.089-.382-.127l-.384-.121-.019-.007a1.814 1.814 0 0 0-1.427.164 11.025 11.025 0 0 1-4.2 1.343 55.774 55.774 0 0 1-.8-.192l.095-.013a19.242 19.242 0 0 0 4.8-1.787l-.76-.225c-.513-.155-1.027-.317-1.54-.468-.259-.073-.617-.17-.954-.263a3.2 3.2 0 0 0-1.755.011c-4.016 1.189-7.763-.136-5.727.052a22.167 22.167 0 0 0 5.482-.636c-.05-.013-.1-.028-.146-.039-.518-.138-1.034-.3-1.556-.43s-1.042-.266-1.565-.406l-.391-.105a5.74 5.74 0 0 0-.391-.1c-.263-.065-.526-.127-.787-.195l-.1-.026a.144.144 0 0 1-.112-.112.167.167 0 0 1 .166-.211l.108.006c.272.015.544.037.816.056.137.006.272.024.407.041l.4.045q.813.1 1.62.208c.272.03.538.086.808.129s.535.093.8.145l.175.032a21.048 21.048 0 0 0-4.088-3.321c-1.744-.909 1.783-.1 4.485 2.8a3.241 3.241 0 0 0 1.638.951l.98.229c.134.028.266.065.394.1l.4.108.786.216.537.156a17.246 17.246 0 0 0-2.769-3.606c-1.349-1.148 1.539.162 3.328 3.287a1.763 1.763 0 0 0 .989.8l.254.082c.259.084.518.166.773.261.512.186 1.025.367 1.535.557.425.169.85.337 1.275.51a11.359 11.359 0 0 0-2.011-3.015c-1.083-.956 1.479.056 2.67 2.994a.947.947 0 0 0 .486.507c.2.086.394.175.594.261l.446.208c.031.146.054.272.072.368.025.161.036.249.036.249zm0 0" class="cls-19" data-name="Path 974" transform="translate(-36.054 -86.188)"/>
    <path id="Path_975" d="M358.631 70.437v.011c0 .028-.009.054-.015.08l-.024.092c-.009.032-.02.061-.031.091a1.6 1.6 0 0 1-.078.182s-.006.008-.006.013l-.043.079a1.6 1.6 0 0 1-.092.145l-.086.125c-.024.028-.047.058-.072.086l-.076.091c-.025.028-.051.058-.079.086a4.055 4.055 0 0 1-.173.175c-.025.026-.053.05-.079.076s-.073.065-.11.1-.067.058-.1.084-.069.056-.1.084-.071.056-.108.084a9.311 9.311 0 0 1-.572.4c-.069.046-.14.091-.214.137-.052.03-.1.063-.156.095l-.211.123-.026.013a.91.91 0 0 1-.08.046 24.044 24.044 0 0 1-3.461 1.553c.105 0 4.055-.172 3.995 2.187-.024.924-1.493 1.485-3.291 1.826a41.172 41.172 0 0 1-6.538.529 6.923 6.923 0 0 1 2.32 1.772c-4.6 1.643-12.14 2.953-21.323 3.69q-1.078.09-2.187.164-.411.03-.829.056l-1.016.063c.266-2.454 1.191-7.254 4.372-9.553 4.3-3.1 3.466 1.228 3.434 1.392a26.115 26.115 0 0 1 4.552-6.084 13.451 13.451 0 0 1 3.484-2.493c4.733-2.242 2.037 3.224 1.966 3.367.1-.134 4.746-6.114 8.931-5.465s-.57 4.483-.7 4.588c.15-.077 6.606-3.455 8.527-1.077a1.245 1.245 0 0 1 .295.987zm0 0" class="cls-13" data-name="Path 975" transform="translate(-260.53 -53.016)"/>
    <path id="Path_976" d="M366.232 89.191v.011c0 .028-.009.054-.015.08l-.024.092c-.009.032-.02.061-.031.091a1.6 1.6 0 0 1-.078.182s-.006.008-.006.013a1.25 1.25 0 0 0-.043.079 1.6 1.6 0 0 1-.092.145l-.086.125c-.024.028-.047.058-.072.086l-.076.091c-.025.028-.051.058-.079.086a4.055 4.055 0 0 1-.173.175c-.025.026-.053.05-.079.076s-.073.065-.11.1-.067.058-.1.084-.069.056-.1.084-.071.056-.108.084a9.311 9.311 0 0 1-.572.4c-.069.046-.14.091-.214.137-.052.03-.1.063-.156.095l-.211.123-.026.013a.914.914 0 0 1-.08.046 24.045 24.045 0 0 1-3.461 1.553c.105 0 4.055-.172 3.995 2.187-.024.924-1.493 1.485-3.291 1.826a41.173 41.173 0 0 1-6.538.529 6.923 6.923 0 0 1 2.32 1.772c-4.6 1.643-12.14 2.953-21.323 3.69q-1.078.09-2.187.164A109.717 109.717 0 0 1 356.6 92.1l.084-.03c3.939-1.37 7.263-2.3 9.548-2.879zm0 0" class="cls-20" data-name="Path 976" transform="translate(-268.131 -71.771)"/>
    <path id="Path_977" d="M339.828 94.749l-1.062.555a29 29 0 0 0 7.321.676c2.685-.307-2.18 1.493-7.343.205a2.948 2.948 0 0 0-2.1.276l-.028.015-.536.289c-.177.095-.352.2-.529.3-.71.4-1.416.794-2.128 1.183-.481.272-.961.549-1.44.82a139.71 139.71 0 0 1-3.016.221l.341-.229a1.48 1.48 0 0 0 .609-.826c1.167-4.235 4.7-6.434 3.307-4.816a16.933 16.933 0 0 0-2.344 4.619q.874-.556 1.755-1.1c.7-.423 1.416-.835 2.124-1.254a26.2 26.2 0 0 1 1.073-.6l.354-.195a2.918 2.918 0 0 0 1.284-1.388c2-4.684 5.946-7.381 4.206-5.424a26.409 26.409 0 0 0-3.332 5.648l.751-.386 1.1-.552.552-.274c.184-.093.367-.186.555-.27l1.382-.635a5.556 5.556 0 0 0 2.2-1.8 21.194 21.194 0 0 1 3.048-3.371c2.551-2.288 4.623-3.093 2.933-1.815a18.444 18.444 0 0 0-2.149 1.992c-1.234 1.305-2.413 2.777-3.156 3.74l.25-.1c.378-.157.758-.308 1.138-.462s.758-.315 1.146-.449q1.159-.421 2.318-.827l.579-.2c.194-.067.386-.136.584-.192.391-.119.781-.24 1.174-.354l.059-.018c.034-.008.066-.019.1-.027a.2.2 0 0 1 .278.157.2.2 0 0 1 0 .06.227.227 0 0 1-.14.184l-.147.071c-.369.177-.738.349-1.107.523-.186.084-.367.175-.551.267l-.546.272c-.732.36-1.463.719-2.2 1.068s-1.453.734-2.18 1.093c-.069.032-.136.066-.205.1a36.386 36.386 0 0 0 8.089-1.058c2.922-.941-2.269 2.072-8.336 1.906a5.394 5.394 0 0 0-2.551.587c-.473.235-.974.488-1.338.671-.716.361-1.432.744-2.146 1.124zm0 0" class="cls-21" data-name="Path 977" transform="translate(-264.714 -67.593)"/>
    <path id="Path_978" d="M135.61 128.1a5.32 5.32 0 0 1-.525 2.308c-.825-.059-1.638-.124-2.437-.19a155.028 155.028 0 0 1-6.213-.643c-.268-.033-.531-.065-.794-.1l-.5-.065a5.232 5.232 0 0 1-.165-1.31 5.318 5.318 0 0 1 10.637 0zm0 0" class="cls-22" data-name="Path 978" transform="translate(-100.564 -98.804)"/>
    <path id="Path_979" d="M137.327 129.242a3.729 3.729 0 0 1-1.705 3.069c-2.081-.175-4.073-.38-5.963-.613a3.606 3.606 0 0 1-.99-2.456 4.358 4.358 0 0 1 8.659 0zm0 0" class="cls-23" data-name="Path 979" transform="translate(-103.538 -100.894)"/>
</svg>
