<svg xmlns="http://www.w3.org/2000/svg" width="54.988" height="46.382" viewBox="0 0 54.988 46.382">
    <defs>
        <style>
            .cls-1{fill:#dce1eb}.cls-2{fill:#f2f6fc}.cls-3{fill:#fff04a}.cls-4{fill:#ffc247}.cls-5{fill:#cdd2e1}.cls-6{fill:#e9edf5}.cls-7{fill:#afb4c8}.cls-8{fill:#f7f7f7}.cls-9{fill:#ff7d81}.cls-10{fill:#966857}.cls-11{fill:#bec3d2}
        </style>
    </defs>
    <g id="_13-slad" data-name="13-slad">
        <path id="Path_514" d="M51.258 43H26v3.873h25.258z" class="cls-1" data-name="Path 514" transform="translate(-15.314 -4.24)"/>
        <path id="Path_515" d="M58.4 31H18.43a44.373 44.373 0 0 0 7.354 11.618h25.257A44.373 44.373 0 0 0 58.4 31z" class="cls-2" data-name="Path 515" transform="translate(-15.098 -3.858)"/>
        <path id="Path_518" d="M56.177 15.721a3.063 3.063 0 0 0-2.788-.678.78.78 0 0 1-.534.029c-.223-.1-.291-.407-.389-.658a2.2 2.2 0 0 0-1.593-1.336 3.731 3.731 0 0 0-2.079.184 4.028 4.028 0 0 0-1.836 1.2 2.491 2.491 0 0 0-.525 2.159 9.049 9.049 0 0 0-2.827-.745 3.47 3.47 0 0 0-2.691.978 12.569 12.569 0 0 1-.971 1.162c-.291.242-.631.387-.913.62A2.5 2.5 0 0 0 38 20.746h19.43v-2.179a3.74 3.74 0 0 0-1.253-2.846z" class="cls-3" data-name="Path 518" transform="translate(-33.144 -3.285)"/>
        <path id="Path_519" d="M47.576 14.462a2.491 2.491 0 0 0-.525 2.159 9.049 9.049 0 0 0-2.827-.745c-.045 0-.09.007-.135.006a2.664 2.664 0 0 1 .572-1.419 4.028 4.028 0 0 1 1.836-1.2 3.731 3.731 0 0 1 2.079-.184 2.361 2.361 0 0 1 .641.262 3.886 3.886 0 0 0-1.642 1.122z" class="cls-4" data-name="Path 519" transform="translate(-30.848 -3.285)"/>
        <path id="Path_520" d="M51.848 18.729c.282-.232.622-.378.913-.62a12.569 12.569 0 0 0 .971-1.162 3.47 3.47 0 0 1 2.691-.978 6.219 6.219 0 0 1 1.373.241 2.962 2.962 0 0 0-1.149.737 12.574 12.574 0 0 1-.971 1.162c-.291.242-.631.387-.913.62a2.5 2.5 0 0 0-1.03 2.111h-2.914a2.5 2.5 0 0 1 1.029-2.111z" class="cls-4" data-name="Path 520" transform="translate(-45.961 -3.379)"/>
        <path id="Path_521" d="M51.8 43H45v3.873h6.8z" class="cls-5" data-name="Path 521" transform="translate(-34.314 -4.24)"/>
        <path id="Path_522" d="M45 31a44.373 44.373 0 0 0 7.354 11.618h6.8A44.373 44.373 0 0 1 51.8 31z" class="cls-6" data-name="Path 522" transform="translate(-41.668 -3.858)"/>
        <path id="Path_523" d="M52.57 27a28.8 28.8 0 0 0 1.389 3.873h6.8A28.8 28.8 0 0 1 59.37 27z" class="cls-5" data-name="Path 523" transform="translate(-50.627 -3.73)"/>
        <path id="Path_524" d="M54 22.936v1.936a1.945 1.945 0 0 0 1.943 1.936h6.8a1.945 1.945 0 0 1-1.943-1.935v-1.937A1.945 1.945 0 0 1 62.743 21h-6.8A1.945 1.945 0 0 0 54 22.936z" class="cls-7" data-name="Path 524" transform="translate(-54 -3.539)"/>
        <g id="Group_177" data-name="Group 177" transform="rotate(-41 22.809 8.305)">
            <path id="Path_556" d="M12.24 0a.942.942 0 1 1 0 1.883h-.471V8a.942.942 0 1 1-1.883 0V1.883H.942A.942.942 0 1 1 .942 0z" class="cls-8" data-name="Path 556" transform="translate(4.237 6.12)"/>
            <path id="Path_557" d="M17.941 5.649V11.3a3.709 3.709 0 0 1-3.766 3.766h-2.354a1.883 1.883 0 0 1-1.883-1.883v-1.414a1.479 1.479 0 0 0-1.586-1.412H5.4A5.294 5.294 0 0 1 0 5.179a5.068 5.068 0 0 1 1.582-3.663A5.514 5.514 0 0 1 5.4 0h6.887a5.653 5.653 0 0 1 5.649 5.649zm-2.354-.471a.944.944 0 0 0-.942-.942H3.347a.942.942 0 0 0 0 1.883h8.945v6.12a.942.942 0 1 0 1.883 0V6.12h.471a.944.944 0 0 0 .941-.941z" class="cls-9" data-name="Path 557" transform="translate(1.831 1.883)"/>
            <path id="Path_558" d="M21.655 7.532v6.591a4.708 4.708 0 0 1-4.708 4.708h-3.765a2.825 2.825 0 0 1-2.825-2.825 1.881 1.881 0 0 0-1.883-1.883H7.062A7.062 7.062 0 1 1 7.062 0h7.062a7.532 7.532 0 0 1 7.531 7.532zm-1.883 5.649V7.532a5.653 5.653 0 0 0-5.649-5.649H7.236A5.514 5.514 0 0 0 3.413 3.4a5.068 5.068 0 0 0-1.582 3.662 5.294 5.294 0 0 0 5.4 5.178h2.947a1.479 1.479 0 0 1 1.586 1.412v1.412a1.883 1.883 0 0 0 1.883 1.883h2.354a3.709 3.709 0 0 0 3.766-3.766z" class="cls-10" data-name="Path 558"/>
        </g>
        <g id="Group_179" data-name="Group 179" transform="rotate(-41 29.566 -9.767)">
            <path id="Path_556-2" d="M14.647 0a1.127 1.127 0 1 1 0 2.253h-.563v7.324a1.127 1.127 0 1 1-2.253 0V2.253H1.127a1.127 1.127 0 1 1 0-2.253z" class="cls-8" data-name="Path 556" transform="translate(5.07 7.323)"/>
            <path id="Path_557-2" d="M21.469 6.76v6.76a4.438 4.438 0 0 1-4.507 4.507h-2.817a2.253 2.253 0 0 1-2.253-2.253v-1.69a1.769 1.769 0 0 0-1.9-1.69H6.467A6.335 6.335 0 0 1 0 6.2a6.065 6.065 0 0 1 1.893-4.386A6.6 6.6 0 0 1 6.467 0h8.242a6.765 6.765 0 0 1 6.76 6.76zm-2.817-.56a1.13 1.13 0 0 0-1.127-1.13H4.005a1.127 1.127 0 0 0 0 2.253h10.7v7.323a1.127 1.127 0 1 0 2.253 0V7.323h.563A1.13 1.13 0 0 0 18.652 6.2z" class="cls-9" data-name="Path 557" transform="translate(2.191 2.253)"/>
            <path id="Path_558-2" d="M25.913 9.013V16.9a5.633 5.633 0 0 1-5.633 5.633h-4.507a3.38 3.38 0 0 1-3.38-3.38A2.251 2.251 0 0 0 10.14 16.9H8.45a8.45 8.45 0 1 1 0-16.9h8.45a9.013 9.013 0 0 1 9.013 9.013zm-2.253 6.76v-6.76a6.765 6.765 0 0 0-6.76-6.76H8.658a6.6 6.6 0 0 0-4.574 1.814A6.065 6.065 0 0 0 2.191 8.45a6.335 6.335 0 0 0 6.467 6.2h3.526a1.769 1.769 0 0 1 1.9 1.69v1.69a2.253 2.253 0 0 0 2.253 2.253h2.817a4.438 4.438 0 0 0 4.507-4.507z" class="cls-10" data-name="Path 558"/>
        </g>
        <path id="Path_517" d="M15 22.936v1.936a1.945 1.945 0 0 0 1.943 1.936h42.743a1.945 1.945 0 0 0 1.943-1.936v-1.936A1.945 1.945 0 0 0 59.686 21H16.943A1.945 1.945 0 0 0 15 22.936z" class="cls-11" data-name="Path 517" transform="translate(-15 -3.539)"/>
        <path id="Path_516" d="M22.829 27H17a28.8 28.8 0 0 0 1.389 3.873h39.965A28.8 28.8 0 0 0 59.744 27z" class="cls-1" data-name="Path 516" transform="translate(-15.057 -3.73)"/>
        <g id="Group_178" data-name="Group 178" transform="translate(20.668 27)">
            <path id="Path_556-3" d="M10.942 44.945a.942.942 0 1 1 0-1.883h.471v-6.12a.942.942 0 0 1 1.883 0v6.12h8.944a.942.942 0 1 1 0 1.883z" class="cls-8" data-name="Path 556" transform="translate(-5.763 -32.234)"/>
            <path id="Path_557-3" d="M4.89 36.416v-5.65A3.709 3.709 0 0 1 8.657 27h2.353a1.883 1.883 0 0 1 1.883 1.883V30.3a1.479 1.479 0 0 0 1.586 1.412h2.947a5.294 5.294 0 0 1 5.4 5.178 5.068 5.068 0 0 1-1.582 3.663 5.514 5.514 0 0 1-3.823 1.516H10.54a5.653 5.653 0 0 1-5.65-5.653zm2.354.471a.944.944 0 0 0 .942.942h11.3a.942.942 0 1 0 0-1.883H10.54v-6.12a.942.942 0 0 0-1.883 0v6.12h-.471a.944.944 0 0 0-.942.94z" class="cls-9" data-name="Path 557" transform="translate(-3.007 -25.117)"/>
            <path id="Path_558-3" d="M1 34.3v-6.592A4.708 4.708 0 0 1 5.708 23h3.766a2.825 2.825 0 0 1 2.826 2.825 1.881 1.881 0 0 0 1.883 1.883h1.412a7.061 7.061 0 1 1 0 14.123H8.532A7.532 7.532 0 0 1 1 34.3zm1.883-5.649V34.3a5.653 5.653 0 0 0 5.649 5.649h6.888a5.514 5.514 0 0 0 3.823-1.516 5.068 5.068 0 0 0 1.582-3.663 5.294 5.294 0 0 0-5.4-5.178h-2.952a1.479 1.479 0 0 1-1.586-1.412v-1.414A1.883 1.883 0 0 0 9 24.883H6.649a3.709 3.709 0 0 0-3.766 3.766z" class="cls-10" data-name="Path 558" transform="translate(-1 -23)"/>
        </g>
        <g id="Group_180" data-name="Group 180" transform="translate(34.999 29)">
            <path id="Path_556-4" d="M10.869 44.256a.869.869 0 1 1 0-1.738h.431v-5.649a.869.869 0 0 1 1.738 0v5.649H21.3a.869.869 0 1 1 0 1.738z" class="cls-8" data-name="Path 556" transform="translate(-6.089 -32.524)"/>
            <path id="Path_557-4" d="M4.89 35.691v-5.214A3.424 3.424 0 0 1 8.367 27h2.173a1.738 1.738 0 0 1 1.738 1.738v1.3a1.365 1.365 0 0 0 1.464 1.3h2.72a4.886 4.886 0 0 1 4.989 4.78 4.678 4.678 0 0 1-1.46 3.381 5.089 5.089 0 0 1-3.529 1.4H10.1a5.218 5.218 0 0 1-5.21-5.208zm2.173.435a.872.872 0 0 0 .869.869h10.429a.869.869 0 1 0 0-1.738H10.1v-5.649a.869.869 0 0 0-1.738 0v5.649h-.43a.872.872 0 0 0-.869.869z" class="cls-9" data-name="Path 557" transform="translate(-3.152 -25.262)"/>
            <path id="Path_558-4" d="M1 33.429v-6.084A4.345 4.345 0 0 1 5.345 23h3.477a2.607 2.607 0 0 1 2.607 2.607 1.736 1.736 0 0 0 1.738 1.738h1.3a6.518 6.518 0 1 1 0 13.036H7.953A6.953 6.953 0 0 1 1 33.429zm1.738-5.215v5.215a5.218 5.218 0 0 0 5.215 5.215h6.357a5.089 5.089 0 0 0 3.529-1.4 4.678 4.678 0 0 0 1.46-3.381 4.886 4.886 0 0 0-4.989-4.78h-2.72a1.365 1.365 0 0 1-1.464-1.3v-1.3a1.738 1.738 0 0 0-1.738-1.738H6.215a3.424 3.424 0 0 0-3.476 3.476z" class="cls-10" data-name="Path 558" transform="translate(-1 -23)"/>
        </g>
    </g>
</svg>
