<svg xmlns="http://www.w3.org/2000/svg" id="_13-slad" width="56" height="45" data-name="13-slad" viewBox="0 0 56 45">
    <defs>
        <style>
            .cls-1{fill:#dce1eb}.cls-2{fill:#f2f6fc}.cls-3{fill:#bec3d2}.cls-4{fill:#fff04a}.cls-5{fill:#ffc247}.cls-6{fill:#cdd2e1}.cls-7{fill:#e9edf5}.cls-8{fill:#afb4c8}.cls-9{fill:#a5e887}.cls-10{fill:#ff475a}.cls-11{fill:#f03049}.cls-12{fill:#86c983}.cls-13{fill:#ff9500}.cls-14{fill:#98ba5c}.cls-15{fill:#ffa426}.cls-16{fill:#fe8205}
        </style>
    </defs>
    <path id="Path_514" d="M49.484 43H26v3.6h23.484z" class="cls-1" data-name="Path 514" transform="translate(-16.065 -10.596)"/>
    <path id="Path_515" d="M55.589 31H18.43a41.231 41.231 0 0 0 6.837 10.8h23.484A41.231 41.231 0 0 0 55.589 31z" class="cls-2" data-name="Path 515" transform="translate(-15.332 -9.392)"/>
    <path id="Path_516" d="M22.419 27H17a26.755 26.755 0 0 0 1.292 3.6H55.45a26.754 26.754 0 0 0 1.292-3.6z" class="cls-1" data-name="Path 516" transform="translate(-15.194 -8.991)"/>
    <path id="Path_517" d="M15 22.8v1.8a1.808 1.808 0 0 0 1.806 1.8h39.742a1.808 1.808 0 0 0 1.806-1.8v-1.8a1.808 1.808 0 0 0-1.806-1.8H16.806A1.808 1.808 0 0 0 15 22.8z" class="cls-3" data-name="Path 517" transform="translate(-15 -8.389)"/>
    <path id="Path_518" d="M54.9 15.529a2.849 2.849 0 0 0-2.592-.63.725.725 0 0 1-.5.027c-.208-.09-.271-.378-.361-.612a2.046 2.046 0 0 0-1.481-1.242 3.47 3.47 0 0 0-1.933.171 3.745 3.745 0 0 0-1.707 1.116 2.314 2.314 0 0 0-.488 2.006 8.417 8.417 0 0 0-2.628-.693 3.227 3.227 0 0 0-2.5.909 11.681 11.681 0 0 1-.9 1.08c-.271.225-.587.36-.849.576A2.322 2.322 0 0 0 38 20.2h18.066v-2.026a3.475 3.475 0 0 0-1.166-2.645z" class="cls-4" data-name="Path 518" transform="translate(-33.485 -7.587)"/>
    <path id="Path_519" d="M47.332 14.359a2.314 2.314 0 0 0-.488 2.006 8.417 8.417 0 0 0-2.628-.693c-.042 0-.084.006-.126.005a2.475 2.475 0 0 1 .532-1.319 3.745 3.745 0 0 1 1.707-1.116 3.47 3.47 0 0 1 1.933-.171 2.2 2.2 0 0 1 .6.244 3.613 3.613 0 0 0-1.526 1.043z" class="cls-5" data-name="Path 519" transform="translate(-31.778 -7.587)"/>
    <path id="Path_520" d="M51.776 18.533c.262-.216.578-.351.849-.576a11.681 11.681 0 0 0 .9-1.08 3.227 3.227 0 0 1 2.5-.909 5.785 5.785 0 0 1 1.276.224 2.754 2.754 0 0 0-1.069.685 11.685 11.685 0 0 1-.9 1.08c-.271.225-.587.36-.849.576a2.322 2.322 0 0 0-.957 1.961h-2.71a2.322 2.322 0 0 1 .96-1.961z" class="cls-5" data-name="Path 520" transform="translate(-46.302 -7.883)"/>
    <path id="Path_521" d="M51.323 43H45v3.6h6.323z" class="cls-6" data-name="Path 521" transform="translate(-35.065 -10.596)"/>
    <path id="Path_522" d="M45 31a41.232 41.232 0 0 0 6.837 10.8h6.323A41.231 41.231 0 0 1 51.323 31z" class="cls-7" data-name="Path 522" transform="translate(-41.902 -9.392)"/>
    <path id="Path_523" d="M52.57 27a26.753 26.753 0 0 0 1.292 3.6h6.323a26.752 26.752 0 0 1-1.292-3.6z" class="cls-6" data-name="Path 523" transform="translate(-50.764 -8.991)"/>
    <path id="Path_524" d="M54 22.8v1.8a1.808 1.808 0 0 0 1.806 1.8h6.323a1.808 1.808 0 0 1-1.806-1.8v-1.8a1.808 1.808 0 0 1 1.806-1.8h-6.323A1.808 1.808 0 0 0 54 22.8z" class="cls-8" data-name="Path 524" transform="translate(-54 -8.389)"/>
    <path id="Path_525" d="M12.226 29a17.3 17.3 0 0 0-4.525.873C6.183 30.332 5 30.8 5 30.8l1.319.657L8.613 32.6l-1.807 2.7 5.419-1.8 5.419 1.8-1.806-2.7 2.294-1.143 1.319-.657a27.679 27.679 0 0 0-6.955-1.79c-.09-.01-.18-.01-.27-.01z" class="cls-9" data-name="Path 525" transform="translate(32.935 -9.191)"/>
    <path id="Path_526" d="M1.01 39.17a8.045 8.045 0 0 0 .632 3.13l3.884.468a4.507 4.507 0 0 1 4.516 4.5h4.516a8.093 8.093 0 0 0 3.2-15.538l-2.294 1.143 1.806 2.7-5.419-1.8-5.419 1.8 1.806-2.7-2.297-1.143a8.089 8.089 0 0 0-4.931 7.44z" class="cls-10" data-name="Path 526" transform="translate(33.313 -9.465)"/>
    <path id="Path_527" d="M21.932 33.529a8.084 8.084 0 0 0-4.868 6.6 8.023 8.023 0 0 1 4.868-8.4l2.294 1.143-.9 1.35z" class="cls-11" data-name="Path 527" transform="translate(17.322 -9.465)"/>
    <path id="Path_528" d="M17.839 37.6l-5.419-1.8L7 37.6l1.548-2.313L12.419 34l3.871 1.286z" class="cls-11" data-name="Path 528" transform="translate(32.742 -9.693)"/>
    <path id="Path_529" d="M5.841 35.248a8.094 8.094 0 0 0-2.547-1.718l-1.394.692-.9-1.349 2.294-1.143a8.051 8.051 0 0 1 4.878 8.34 8.035 8.035 0 0 0-2.331-4.822z" class="cls-11" data-name="Path 529" transform="translate(47.774 -9.465)"/>
    <path id="Path_530" d="M15 48.2a7.222 7.222 0 0 0 6.323 7.144 7.489 7.489 0 0 0 .9.054 6.014 6.014 0 0 0 .9-.063 5.592 5.592 0 0 0 .759-.135l4.661-.558 1.806-.216 9.935-1.188 4.516-.54a4.5 4.5 0 1 0 0-9l-3.884-.468-4.245-.5-1.806-.216-8.129-.972-4.51-.542a7.23 7.23 0 0 0-4.778 1.8 6.685 6.685 0 0 0-.822.855 6.554 6.554 0 0 0-.723 1.071A7.055 7.055 0 0 0 15 48.2z" class="cls-5" data-name="Path 530" transform="translate(-5.968 -10.395)"/>
    <path id="Path_531" d="M51.2 46.5v3.6h6.323l-3.613 1.8.9 2.7 7.045-1.754a7.161 7.161 0 0 1-1.623-4.546 7.055 7.055 0 0 1 .9-3.473 6.554 6.554 0 0 1 .723-1.071l-.723-.18L54.813 42l-.9 2.7 3.613 1.8z" class="cls-9" data-name="Path 531" transform="translate(-51.2 -10.495)"/>
    <path id="Path_532" d="M19.189 11.866c-.533.045-.795.531-1.192 1.08a1.9 1.9 0 0 1 .533.765c.09.234.154.522.361.612a.725.725 0 0 0 .5-.027 2.849 2.849 0 0 1 2.592.63 3.475 3.475 0 0 1 1.165 2.645v2.024h18.061v-1.8a2.4 2.4 0 0 0-.768-1.88 3.442 3.442 0 0 0-2.276-.684c.063-.513.461-.936.605-1.44a2.221 2.221 0 0 0-1.057-2.348 6.178 6.178 0 0 0-2.737-.846c-.975-.117-2.195-.072-2.665.738.145-.774.172-1.772-.587-2.123a2.2 2.2 0 0 0-1.183-.054c-.9.126-1.806.261-2.71.387A1.874 1.874 0 0 0 25.855 7a4.134 4.134 0 0 0-3.333 1.251 7.087 7.087 0 0 0-1.879 2.627 1.534 1.534 0 0 1-.434.738 1.933 1.933 0 0 1-1.021.252z" class="cls-9" data-name="Path 532" transform="translate(-.564 -6.983)"/>
    <path id="Path_533" d="M34.192 11.866a1.933 1.933 0 0 0 1.021-.252 1.534 1.534 0 0 0 .434-.738 7.088 7.088 0 0 1 1.879-2.627A4.134 4.134 0 0 1 40.858 7a2.051 2.051 0 0 1 1.755.783c-.186.139-.371.294-.572.468a7.087 7.087 0 0 0-1.879 2.627 1.534 1.534 0 0 1-.434.738 1.933 1.933 0 0 1-1.021.252c-.533.045-.795.531-1.192 1.08a1.9 1.9 0 0 1 .533.765c.09.234.154.522.361.612a.725.725 0 0 0 .5-.027 2.849 2.849 0 0 1 2.592.63 3.475 3.475 0 0 1 1.165 2.645v2.024h-4.518V17.57a3.475 3.475 0 0 0-1.165-2.645 2.849 2.849 0 0 0-2.592-.63.725.725 0 0 1-.5.027c-.208-.09-.271-.378-.361-.612a1.9 1.9 0 0 0-.53-.765c.4-.549.659-1.035 1.192-1.08z" class="cls-12" data-name="Path 533" transform="translate(-15.567 -6.983)"/>
    <g id="Group_173" data-name="Group 173" transform="translate(15.355 30.929)">
        <path id="Path_534" d="M24.806 53.822V49H23v5.038z" class="cls-13" data-name="Path 534" transform="translate(-4.032 -42.126)"/>
        <path id="Path_535" d="M29 42.68v4.786h1.806V42.9z" class="cls-13" data-name="Path 535" transform="translate(-15.452 -41.492)"/>
        <path id="Path_536" d="M36 50v5.542l1.806-.216V50z" class="cls-13" data-name="Path 536" transform="translate(-28.774 -42.227)"/>
        <path id="Path_537" d="M40 41.36v5.074h1.806v-4.858z" class="cls-13" data-name="Path 537" transform="translate(-36.387 -41.36)"/>
        <path id="Path_538" d="M45.806 56.536V53H44v3.545z" class="cls-13" data-name="Path 538" transform="translate(-44 -42.528)"/>
        <path id="Path_539" d="M30.806 50H29v1.8h1.806z" class="cls-13" data-name="Path 539" transform="translate(-15.452 -42.227)"/>
        <path id="Path_540" d="M45.806 49H44v1.8h1.806z" class="cls-13" data-name="Path 540" transform="translate(-44 -42.126)"/>
    </g>
    <path id="Path_541" d="M12.1 31.227a15.546 15.546 0 0 1 .256-2.525 6.039 6.039 0 0 1 1.286-3.137l-1.277-1.272a7.507 7.507 0 0 0-1.787 4.09 17.017 17.017 0 0 0-.284 2.844z" class="cls-14" data-name="Path 541" transform="translate(33.965 -8.719)"/>
    <path id="Path_542" d="M15 48.85a7.222 7.222 0 0 0 6.323 7.144 7.492 7.492 0 0 0 .9.054 6.015 6.015 0 0 0 .9-.063 5.592 5.592 0 0 0 .759-.135l4.661-.558 1.806-.216 9.935-1.188 4.516-.54a4.454 4.454 0 0 0 4.3-5.848 4.52 4.52 0 0 1-4.29 3.149l-4.516.54-9.935 1.188-1.806.216-4.661.558a5.594 5.594 0 0 1-.759.135 6.013 6.013 0 0 1-.9.063 7.488 7.488 0 0 1-.9-.054 7.224 7.224 0 0 1-6.187-5.767A7.139 7.139 0 0 0 15 48.85z" class="cls-15" data-name="Path 542" transform="translate(-5.968 -11.047)"/>
    <path id="Path_543" d="M23 51.576v2.7l1.806-.216v-2.7z" class="cls-16" data-name="Path 543" transform="translate(11.322 -11.434)"/>
    <path id="Path_544" d="M29 42.68v4.786h1.806V42.9z" class="cls-13" data-name="Path 544" transform="translate(-.097 -10.564)"/>
    <path id="Path_545" d="M36 53.136v2.7l1.806-.216v-2.7z" class="cls-16" data-name="Path 545" transform="translate(-13.419 -11.591)"/>
    <path id="Path_546" d="M40 41.36v5.074h1.806v-4.858z" class="cls-13" data-name="Path 546" transform="translate(-21.032 -10.431)"/>
    <path id="Path_547" d="M44 53.939v2.7l1.806-.009v-2.7a6.013 6.013 0 0 1-.9.063 7.492 7.492 0 0 1-.9-.054z" class="cls-16" data-name="Path 547" transform="translate(-28.645 -11.692)"/>
    <path id="Path_548" d="M30.806 50H29v1.8h1.806z" class="cls-13" data-name="Path 548" transform="translate(-.097 -11.298)"/>
    <path id="Path_549" d="M45.806 49H44v1.8h1.806z" class="cls-13" data-name="Path 549" transform="translate(-28.645 -11.198)"/>
</svg>
