<svg xmlns="http://www.w3.org/2000/svg" id="_13-slad" width="49" height="50" data-name="13-slad" viewBox="0 0 49 50">
    <defs>
        <style>
            .cls-1{fill:#dce1eb}.cls-2{fill:#f2f6fc}.cls-3{fill:#fff04a}.cls-4{fill:#ffc247}.cls-5{fill:#cdd2e1}.cls-6{fill:#e9edf5}.cls-7{fill:#afb4c8}.cls-8{fill:#a5e887}.cls-9{fill:#86c983}.cls-10{fill:#f7f7f7}.cls-11{fill:#ff7d81}.cls-12{fill:#966857}.cls-13{fill:#bec3d2}
        </style>
    </defs>
    <path id="Path_514" d="M52.542 43H26v4.277h26.542z" class="cls-1" data-name="Path 514" transform="translate(-14.771 -3.205)"/>
    <path id="Path_515" d="M60.427 31h-42a49.415 49.415 0 0 0 7.728 12.832H52.7A49.415 49.415 0 0 0 60.427 31z" class="cls-2" data-name="Path 515" transform="translate(-14.929 -4.036)"/>
    <path id="Path_518" d="M57.1 16a3.106 3.106 0 0 0-2.93-.749.782.782 0 0 1-.561.032c-.235-.107-.306-.449-.408-.727a2.346 2.346 0 0 0-1.674-1.476 3.742 3.742 0 0 0-2.185.2 4.221 4.221 0 0 0-1.929 1.326A2.855 2.855 0 0 0 46.862 17a9.145 9.145 0 0 0-2.971-.823 3.545 3.545 0 0 0-2.828 1.08 13.745 13.745 0 0 1-1.021 1.283c-.306.267-.664.428-.96.684A2.811 2.811 0 0 0 38 21.554h20.418v-2.406A4.229 4.229 0 0 0 57.1 16z" class="cls-3" data-name="Path 518" transform="translate(-32.897 -5.283)"/>
    <path id="Path_519" d="M47.754 14.614A2.855 2.855 0 0 0 47.2 17a9.145 9.145 0 0 0-2.971-.823c-.047 0-.095.007-.142.006a3.027 3.027 0 0 1 .6-1.568 4.221 4.221 0 0 1 1.929-1.326 3.742 3.742 0 0 1 2.185-.2 2.415 2.415 0 0 1 .674.29 4.084 4.084 0 0 0-1.725 1.239z" class="cls-4" data-name="Path 519" transform="translate(-30.175 -5.283)"/>
    <path id="Path_520" d="M51.9 19.018c.3-.257.653-.417.96-.684a13.746 13.746 0 0 0 1.021-1.283 3.545 3.545 0 0 1 2.828-1.08 6.249 6.249 0 0 1 1.442.266 3.1 3.1 0 0 0-1.208.814 13.748 13.748 0 0 1-1.021 1.283c-.306.267-.664.428-.96.684a2.811 2.811 0 0 0-1.082 2.331h-3.061a2.811 2.811 0 0 1 1.081-2.331z" class="cls-4" data-name="Path 520" transform="translate(-45.715 -5.078)"/>
    <path id="Path_521" d="M52.146 43H45v4.277h7.146z" class="cls-5" data-name="Path 521" transform="translate(-33.771 -3.205)"/>
    <path id="Path_522" d="M45 31a49.415 49.415 0 0 0 7.728 12.832h7.146A49.415 49.415 0 0 1 52.146 31z" class="cls-6" data-name="Path 522" transform="translate(-41.499 -4.036)"/>
    <path id="Path_523" d="M52.57 27a32.888 32.888 0 0 0 1.46 4.277h7.146A32.885 32.885 0 0 1 59.716 27z" class="cls-5" data-name="Path 523" transform="translate(-50.528 -4.313)"/>
    <path id="Path_524" d="M54 23.139v2.139a2.1 2.1 0 0 0 2.042 2.139h7.146a2.1 2.1 0 0 1-2.042-2.139v-2.139A2.1 2.1 0 0 1 63.187 21h-7.145A2.1 2.1 0 0 0 54 23.139z" class="cls-7" data-name="Path 524" transform="translate(-54 -4.729)"/>
    <path id="Path_532" d="M19.344 12.786c-.6.053-.9.631-1.347 1.283a2.257 2.257 0 0 1 .6.909c.1.278.174.62.408.727a.782.782 0 0 0 .561-.032 3.106 3.106 0 0 1 2.93.749 4.229 4.229 0 0 1 1.317 3.144v2.406h20.419v-2.139a2.925 2.925 0 0 0-.868-2.235 3.758 3.758 0 0 0-2.572-.813 12.691 12.691 0 0 1 .684-1.711 2.692 2.692 0 0 0-1.194-2.791 6.74 6.74 0 0 0-3.093-1.005c-1.1-.139-2.481-.086-3.011.877.163-.92.194-2.107-.664-2.524a2.365 2.365 0 0 0-1.337-.064c-1.021.15-2.042.31-3.063.46a2.312 2.312 0 0 0-.3-2.179A2.081 2.081 0 0 0 26.878 7a4.547 4.547 0 0 0-3.767 1.486 8.427 8.427 0 0 0-2.123 3.122 1.845 1.845 0 0 1-.49.877 2.1 2.1 0 0 1-1.154.3z" class="cls-8" data-name="Path 532" transform="translate(1.705 -5.7)"/>
    <path id="Path_533" d="M34.347 12.786a2.1 2.1 0 0 0 1.154-.3 1.845 1.845 0 0 0 .49-.877 8.427 8.427 0 0 1 2.123-3.122A4.547 4.547 0 0 1 41.881 7a2.271 2.271 0 0 1 1.983.93c-.21.166-.42.35-.646.556a8.427 8.427 0 0 0-2.123 3.122 1.845 1.845 0 0 1-.49.877 2.1 2.1 0 0 1-1.154.3c-.6.053-.9.631-1.347 1.283a2.258 2.258 0 0 1 .6.909c.1.278.174.62.408.727a.782.782 0 0 0 .561-.032 3.106 3.106 0 0 1 2.93.749 4.229 4.229 0 0 1 1.317 3.144v2.406h-5.1v-2.406a4.229 4.229 0 0 0-1.32-3.143 3.106 3.106 0 0 0-2.93-.749.782.782 0 0 1-.561.032c-.235-.107-.306-.449-.408-.727a2.257 2.257 0 0 0-.6-.909c.449-.652.745-1.23 1.347-1.283z" class="cls-9" data-name="Path 533" transform="translate(-13.298 -5.7)"/>
    <g id="Group_177" data-name="Group 177" transform="rotate(-41 20.77 7.523)">
        <path id="Path_556" d="M13.33 0a1.025 1.025 0 1 1 0 2.051h-.513v6.665a1.025 1.025 0 1 1-2.051 0V2.051H1.025a1.025 1.025 0 1 1 0-2.051z" class="cls-10" data-name="Path 556" transform="translate(4.614 6.665)"/>
        <path id="Path_557" d="M19.538 6.152V12.3a4.039 4.039 0 0 1-4.1 4.1h-2.565a2.051 2.051 0 0 1-2.051-2.051v-1.532a1.61 1.61 0 0 0-1.728-1.538H5.886A5.765 5.765 0 0 1 0 5.64a5.52 5.52 0 0 1 1.723-3.989A6 6 0 0 1 5.886 0h7.5a6.157 6.157 0 0 1 6.152 6.152zm-2.563-.512a1.028 1.028 0 0 0-1.025-1.025H3.645a1.025 1.025 0 1 0 0 2.051h9.741v6.664a1.025 1.025 0 1 0 2.051 0V6.665h.513a1.028 1.028 0 0 0 1.025-1.025z" class="cls-11" data-name="Path 557" transform="translate(1.994 2.051)"/>
        <path id="Path_558" d="M23.583 8.2v7.18a5.127 5.127 0 0 1-5.127 5.127h-4.1a3.076 3.076 0 0 1-3.076-3.076 2.048 2.048 0 0 0-2.052-2.051H7.69A7.69 7.69 0 1 1 7.69 0h7.69a8.2 8.2 0 0 1 8.203 8.2zm-2.051 6.152V8.2a6.157 6.157 0 0 0-6.152-6.149h-7.5A6 6 0 0 0 3.717 3.7a5.52 5.52 0 0 0-1.723 3.99 5.765 5.765 0 0 0 5.886 5.64h3.209a1.61 1.61 0 0 1 1.728 1.538v1.538a2.051 2.051 0 0 0 2.051 2.051h2.563a4.039 4.039 0 0 0 4.1-4.1z" class="cls-12" data-name="Path 558"/>
    </g>
    <path id="Path_517" d="M15 23.139v2.139a2.1 2.1 0 0 0 2.042 2.139h44.916A2.1 2.1 0 0 0 64 25.277v-2.138A2.1 2.1 0 0 0 61.958 21H17.042A2.1 2.1 0 0 0 15 23.139z" class="cls-13" data-name="Path 517" transform="translate(-15 -4.729)"/>
    <path id="Path_516" d="M23.125 27H17a32.89 32.89 0 0 0 1.46 4.277h42A32.888 32.888 0 0 0 61.917 27z" class="cls-1" data-name="Path 516" transform="translate(-14.958 -4.313)"/>
    <g id="Group_178" data-name="Group 178" transform="translate(24.749 29.493)">
        <path id="Path_556-2" d="M23.33 36a1.025 1.025 0 1 1 0 2.051h-.513v6.665a1.025 1.025 0 1 1-2.051 0v-6.665h-9.741a1.025 1.025 0 1 1 0-2.051z" class="cls-10" data-name="Path 556" transform="translate(-5.386 -29.335)"/>
        <path id="Path_557-2" d="M24.428 33.152V39.3a4.039 4.039 0 0 1-4.1 4.1h-2.565a2.051 2.051 0 0 1-2.051-2.051v-1.532a1.61 1.61 0 0 0-1.728-1.538h-3.208a5.765 5.765 0 0 1-5.886-5.64 5.52 5.52 0 0 1 1.723-3.989A6 6 0 0 1 10.776 27h7.5a6.157 6.157 0 0 1 6.152 6.152zm-2.563-.513a1.028 1.028 0 0 0-1.025-1.025H8.535a1.025 1.025 0 0 0 0 2.051h9.741v6.665a1.025 1.025 0 1 0 2.051 0v-6.665h.513a1.028 1.028 0 0 0 1.025-1.026z" class="cls-11" data-name="Path 557" transform="translate(-2.896 -24.949)"/>
        <path id="Path_558-2" d="M24.583 31.2v7.18a5.127 5.127 0 0 1-5.127 5.127h-4.1a3.076 3.076 0 0 1-3.076-3.076 2.048 2.048 0 0 0-2.051-2.051H8.69a7.69 7.69 0 0 1 0-15.38h7.69a8.2 8.2 0 0 1 8.203 8.2zm-2.051 6.152V31.2a6.157 6.157 0 0 0-6.152-6.152h-7.5A6 6 0 0 0 4.717 26.7a5.52 5.52 0 0 0-1.723 3.99 5.765 5.765 0 0 0 5.886 5.64h3.209a1.61 1.61 0 0 1 1.728 1.538v1.538a2.051 2.051 0 0 0 2.051 2.051h2.563a4.039 4.039 0 0 0 4.1-4.1z" class="cls-12" data-name="Path 558" transform="translate(-1 -23)"/>
    </g>
</svg>
